<mxfile host="app.diagrams.net" modified="2023-06-13T01:52:44.545Z" agent="Mozilla/5.0 (Windows NT 10.0; Win64; x64) AppleWebKit/537.36 (KHTML, like Gecko) Chrome/114.0.0.0 Safari/537.36" etag="fiZPbC7cozruP_FZpPTO" version="21.3.8" type="google" pages="10">
  <diagram name="E4" id="bhoP7nnvQvkUKiPtjRxT">
    <mxGraphModel grid="1" page="1" gridSize="10" guides="1" tooltips="1" connect="1" arrows="1" fold="1" pageScale="1" pageWidth="1100" pageHeight="1700" math="0" shadow="0">
      <root>
        <mxCell id="0" />
        <mxCell id="1" parent="0" />
        <mxCell id="WKNKOGRavNEx1l63uiAg-1" value="&lt;h1&gt;Ejercicio 4&lt;/h1&gt;&lt;p&gt;SUMAR 10 + 5&lt;/p&gt;" style="text;html=1;strokeColor=none;fillColor=none;spacing=5;spacingTop=-20;whiteSpace=wrap;overflow=hidden;rounded=0;" vertex="1" parent="1">
          <mxGeometry x="10" y="30" width="1070" height="80" as="geometry" />
        </mxCell>
        <mxCell id="WKNKOGRavNEx1l63uiAg-2" value="Facundo Masino - SPD - Unidad 5" style="text;html=1;strokeColor=none;fillColor=none;align=center;verticalAlign=middle;whiteSpace=wrap;rounded=0;" vertex="1" parent="1">
          <mxGeometry x="886" y="4" width="210" height="30" as="geometry" />
        </mxCell>
        <mxCell id="WKNKOGRavNEx1l63uiAg-4" style="edgeStyle=orthogonalEdgeStyle;rounded=0;orthogonalLoop=1;jettySize=auto;html=1;endArrow=none;endFill=0;" edge="1" parent="1" source="WKNKOGRavNEx1l63uiAg-3">
          <mxGeometry relative="1" as="geometry">
            <mxPoint x="550" y="300" as="targetPoint" />
          </mxGeometry>
        </mxCell>
        <mxCell id="WKNKOGRavNEx1l63uiAg-3" value="I" style="ellipse;whiteSpace=wrap;html=1;aspect=fixed;" vertex="1" parent="1">
          <mxGeometry x="520" y="200" width="60" height="60" as="geometry" />
        </mxCell>
        <mxCell id="WKNKOGRavNEx1l63uiAg-7" value="" style="edgeStyle=orthogonalEdgeStyle;rounded=0;orthogonalLoop=1;jettySize=auto;html=1;endArrow=none;endFill=0;" edge="1" parent="1" source="WKNKOGRavNEx1l63uiAg-5" target="WKNKOGRavNEx1l63uiAg-6">
          <mxGeometry relative="1" as="geometry" />
        </mxCell>
        <mxCell id="WKNKOGRavNEx1l63uiAg-5" value="CAN 10" style="rounded=0;whiteSpace=wrap;html=1;" vertex="1" parent="1">
          <mxGeometry x="490" y="300" width="120" height="30" as="geometry" />
        </mxCell>
        <mxCell id="WKNKOGRavNEx1l63uiAg-8" style="edgeStyle=orthogonalEdgeStyle;rounded=0;orthogonalLoop=1;jettySize=auto;html=1;endArrow=none;endFill=0;" edge="1" parent="1" source="WKNKOGRavNEx1l63uiAg-6">
          <mxGeometry relative="1" as="geometry">
            <mxPoint x="550" y="410" as="targetPoint" />
          </mxGeometry>
        </mxCell>
        <mxCell id="WKNKOGRavNEx1l63uiAg-6" value="ALM DIEZ" style="rounded=0;whiteSpace=wrap;html=1;" vertex="1" parent="1">
          <mxGeometry x="490" y="350" width="120" height="30" as="geometry" />
        </mxCell>
        <mxCell id="WKNKOGRavNEx1l63uiAg-12" value="" style="edgeStyle=orthogonalEdgeStyle;rounded=0;orthogonalLoop=1;jettySize=auto;html=1;endArrow=none;endFill=0;" edge="1" parent="1" source="WKNKOGRavNEx1l63uiAg-9" target="WKNKOGRavNEx1l63uiAg-11">
          <mxGeometry relative="1" as="geometry" />
        </mxCell>
        <mxCell id="WKNKOGRavNEx1l63uiAg-9" value="CAN 5" style="rounded=0;whiteSpace=wrap;html=1;" vertex="1" parent="1">
          <mxGeometry x="490" y="410" width="120" height="30" as="geometry" />
        </mxCell>
        <mxCell id="WKNKOGRavNEx1l63uiAg-11" value="SUM DIEZ" style="rounded=0;whiteSpace=wrap;html=1;" vertex="1" parent="1">
          <mxGeometry x="490" y="470" width="120" height="30" as="geometry" />
        </mxCell>
        <mxCell id="WKNKOGRavNEx1l63uiAg-16" value="" style="edgeStyle=orthogonalEdgeStyle;rounded=0;orthogonalLoop=1;jettySize=auto;html=1;endArrow=none;endFill=0;" edge="1" parent="1" source="WKNKOGRavNEx1l63uiAg-15" target="WKNKOGRavNEx1l63uiAg-11">
          <mxGeometry relative="1" as="geometry" />
        </mxCell>
        <mxCell id="WKNKOGRavNEx1l63uiAg-15" value="PAR" style="ellipse;whiteSpace=wrap;html=1;aspect=fixed;" vertex="1" parent="1">
          <mxGeometry x="520" y="530" width="60" height="60" as="geometry" />
        </mxCell>
        <mxCell id="0gElBBwAD-Jr8OHnRNHa-1" value="00" style="text;html=1;align=center;verticalAlign=middle;resizable=0;points=[];autosize=1;strokeColor=none;fillColor=none;fontSize=11;fontFamily=Helvetica;fontColor=default;" vertex="1" parent="1">
          <mxGeometry x="430" y="300" width="40" height="30" as="geometry" />
        </mxCell>
        <mxCell id="0gElBBwAD-Jr8OHnRNHa-2" value="01" style="text;html=1;align=center;verticalAlign=middle;resizable=0;points=[];autosize=1;strokeColor=none;fillColor=none;fontSize=11;fontFamily=Helvetica;fontColor=default;" vertex="1" parent="1">
          <mxGeometry x="430" y="348" width="40" height="30" as="geometry" />
        </mxCell>
        <mxCell id="0gElBBwAD-Jr8OHnRNHa-3" value="02" style="text;html=1;align=center;verticalAlign=middle;resizable=0;points=[];autosize=1;strokeColor=none;fillColor=none;fontSize=11;fontFamily=Helvetica;fontColor=default;" vertex="1" parent="1">
          <mxGeometry x="430" y="410" width="40" height="30" as="geometry" />
        </mxCell>
        <mxCell id="0gElBBwAD-Jr8OHnRNHa-4" value="03" style="text;html=1;align=center;verticalAlign=middle;resizable=0;points=[];autosize=1;strokeColor=none;fillColor=none;fontSize=11;fontFamily=Helvetica;fontColor=default;" vertex="1" parent="1">
          <mxGeometry x="430" y="470" width="40" height="30" as="geometry" />
        </mxCell>
        <mxCell id="AV7BAHHPUFhidJoFvUaM-1" value="04" style="text;html=1;align=center;verticalAlign=middle;resizable=0;points=[];autosize=1;strokeColor=none;fillColor=none;fontSize=11;fontFamily=Helvetica;fontColor=default;" vertex="1" parent="1">
          <mxGeometry x="430" y="545" width="40" height="30" as="geometry" />
        </mxCell>
      </root>
    </mxGraphModel>
  </diagram>
  <diagram name="E5" id="270chFVMPpMQ7EGda-wZ">
    <mxGraphModel grid="1" page="1" gridSize="10" guides="1" tooltips="1" connect="1" arrows="1" fold="1" pageScale="1" pageWidth="1100" pageHeight="1700" math="0" shadow="0">
      <root>
        <mxCell id="zhCs604IUeoIDxSCPQ5r-0" />
        <mxCell id="zhCs604IUeoIDxSCPQ5r-1" parent="zhCs604IUeoIDxSCPQ5r-0" />
        <mxCell id="zhCs604IUeoIDxSCPQ5r-2" value="&lt;h1&gt;Ejercicio 5&lt;/h1&gt;&lt;p&gt;Sumar 10 + 5 y guardar el resultado en memoria.&lt;/p&gt;" style="text;html=1;strokeColor=none;fillColor=none;spacing=5;spacingTop=-20;whiteSpace=wrap;overflow=hidden;rounded=0;" parent="zhCs604IUeoIDxSCPQ5r-1" vertex="1">
          <mxGeometry x="10" y="30" width="1070" height="80" as="geometry" />
        </mxCell>
        <mxCell id="zhCs604IUeoIDxSCPQ5r-3" value="Facundo Masino - SPD - Unidad 5" style="text;html=1;strokeColor=none;fillColor=none;align=center;verticalAlign=middle;whiteSpace=wrap;rounded=0;" parent="zhCs604IUeoIDxSCPQ5r-1" vertex="1">
          <mxGeometry x="886" y="4" width="210" height="30" as="geometry" />
        </mxCell>
        <mxCell id="zhCs604IUeoIDxSCPQ5r-4" style="edgeStyle=orthogonalEdgeStyle;rounded=0;orthogonalLoop=1;jettySize=auto;html=1;endArrow=none;endFill=0;" parent="zhCs604IUeoIDxSCPQ5r-1" source="zhCs604IUeoIDxSCPQ5r-5" edge="1">
          <mxGeometry relative="1" as="geometry">
            <mxPoint x="550" y="300" as="targetPoint" />
          </mxGeometry>
        </mxCell>
        <mxCell id="zhCs604IUeoIDxSCPQ5r-5" value="I" style="ellipse;whiteSpace=wrap;html=1;aspect=fixed;" parent="zhCs604IUeoIDxSCPQ5r-1" vertex="1">
          <mxGeometry x="520" y="200" width="60" height="60" as="geometry" />
        </mxCell>
        <mxCell id="zhCs604IUeoIDxSCPQ5r-6" value="" style="edgeStyle=orthogonalEdgeStyle;rounded=0;orthogonalLoop=1;jettySize=auto;html=1;endArrow=none;endFill=0;" parent="zhCs604IUeoIDxSCPQ5r-1" source="zhCs604IUeoIDxSCPQ5r-7" target="zhCs604IUeoIDxSCPQ5r-9" edge="1">
          <mxGeometry relative="1" as="geometry" />
        </mxCell>
        <mxCell id="zhCs604IUeoIDxSCPQ5r-7" value="CAN 10" style="rounded=0;whiteSpace=wrap;html=1;" parent="zhCs604IUeoIDxSCPQ5r-1" vertex="1">
          <mxGeometry x="490" y="300" width="120" height="30" as="geometry" />
        </mxCell>
        <mxCell id="zhCs604IUeoIDxSCPQ5r-8" style="edgeStyle=orthogonalEdgeStyle;rounded=0;orthogonalLoop=1;jettySize=auto;html=1;endArrow=none;endFill=0;" parent="zhCs604IUeoIDxSCPQ5r-1" source="zhCs604IUeoIDxSCPQ5r-9" edge="1">
          <mxGeometry relative="1" as="geometry">
            <mxPoint x="550" y="410" as="targetPoint" />
          </mxGeometry>
        </mxCell>
        <mxCell id="zhCs604IUeoIDxSCPQ5r-9" value="ALM DIEZ" style="rounded=0;whiteSpace=wrap;html=1;" parent="zhCs604IUeoIDxSCPQ5r-1" vertex="1">
          <mxGeometry x="490" y="350" width="120" height="30" as="geometry" />
        </mxCell>
        <mxCell id="zhCs604IUeoIDxSCPQ5r-10" value="" style="edgeStyle=orthogonalEdgeStyle;rounded=0;orthogonalLoop=1;jettySize=auto;html=1;endArrow=none;endFill=0;" parent="zhCs604IUeoIDxSCPQ5r-1" source="zhCs604IUeoIDxSCPQ5r-11" target="zhCs604IUeoIDxSCPQ5r-12" edge="1">
          <mxGeometry relative="1" as="geometry" />
        </mxCell>
        <mxCell id="zhCs604IUeoIDxSCPQ5r-11" value="CAN 5" style="rounded=0;whiteSpace=wrap;html=1;" parent="zhCs604IUeoIDxSCPQ5r-1" vertex="1">
          <mxGeometry x="490" y="400" width="120" height="30" as="geometry" />
        </mxCell>
        <mxCell id="zhCs604IUeoIDxSCPQ5r-12" value="SUM DIEZ" style="rounded=0;whiteSpace=wrap;html=1;" parent="zhCs604IUeoIDxSCPQ5r-1" vertex="1">
          <mxGeometry x="490" y="450" width="120" height="30" as="geometry" />
        </mxCell>
        <mxCell id="zhCs604IUeoIDxSCPQ5r-13" value="" style="edgeStyle=orthogonalEdgeStyle;rounded=0;orthogonalLoop=1;jettySize=auto;html=1;endArrow=none;endFill=0;" parent="zhCs604IUeoIDxSCPQ5r-1" source="zhCs604IUeoIDxSCPQ5r-14" target="zhCs604IUeoIDxSCPQ5r-12" edge="1">
          <mxGeometry relative="1" as="geometry" />
        </mxCell>
        <mxCell id="zhCs604IUeoIDxSCPQ5r-14" value="PAR" style="ellipse;whiteSpace=wrap;html=1;aspect=fixed;" parent="zhCs604IUeoIDxSCPQ5r-1" vertex="1">
          <mxGeometry x="520" y="560" width="60" height="60" as="geometry" />
        </mxCell>
        <mxCell id="6_tpXl3DnBgd_SepFmpf-0" value="ALM RESULTADO" style="rounded=0;whiteSpace=wrap;html=1;" vertex="1" parent="zhCs604IUeoIDxSCPQ5r-1">
          <mxGeometry x="490" y="500" width="120" height="30" as="geometry" />
        </mxCell>
        <mxCell id="HNWUMZ-alUcnpLYfrB87-0" value="00" style="text;html=1;align=center;verticalAlign=middle;resizable=0;points=[];autosize=1;strokeColor=none;fillColor=none;fontSize=11;fontFamily=Helvetica;fontColor=default;" vertex="1" parent="zhCs604IUeoIDxSCPQ5r-1">
          <mxGeometry x="430" y="300" width="40" height="30" as="geometry" />
        </mxCell>
        <mxCell id="HNWUMZ-alUcnpLYfrB87-1" value="01" style="text;html=1;align=center;verticalAlign=middle;resizable=0;points=[];autosize=1;strokeColor=none;fillColor=none;fontSize=11;fontFamily=Helvetica;fontColor=default;" vertex="1" parent="zhCs604IUeoIDxSCPQ5r-1">
          <mxGeometry x="430" y="350" width="40" height="30" as="geometry" />
        </mxCell>
        <mxCell id="HNWUMZ-alUcnpLYfrB87-2" value="02" style="text;html=1;align=center;verticalAlign=middle;resizable=0;points=[];autosize=1;strokeColor=none;fillColor=none;fontSize=11;fontFamily=Helvetica;fontColor=default;" vertex="1" parent="zhCs604IUeoIDxSCPQ5r-1">
          <mxGeometry x="430" y="400" width="40" height="30" as="geometry" />
        </mxCell>
        <mxCell id="HNWUMZ-alUcnpLYfrB87-3" value="03" style="text;html=1;align=center;verticalAlign=middle;resizable=0;points=[];autosize=1;strokeColor=none;fillColor=none;fontSize=11;fontFamily=Helvetica;fontColor=default;" vertex="1" parent="zhCs604IUeoIDxSCPQ5r-1">
          <mxGeometry x="430" y="450" width="40" height="30" as="geometry" />
        </mxCell>
        <mxCell id="HNWUMZ-alUcnpLYfrB87-4" value="04" style="text;html=1;align=center;verticalAlign=middle;resizable=0;points=[];autosize=1;strokeColor=none;fillColor=none;fontSize=11;fontFamily=Helvetica;fontColor=default;" vertex="1" parent="zhCs604IUeoIDxSCPQ5r-1">
          <mxGeometry x="430" y="500" width="40" height="30" as="geometry" />
        </mxCell>
        <mxCell id="Rs2AI1OgWplyE8HFb_oS-0" value="05" style="text;html=1;align=center;verticalAlign=middle;resizable=0;points=[];autosize=1;strokeColor=none;fillColor=none;fontSize=11;fontFamily=Helvetica;fontColor=default;" vertex="1" parent="zhCs604IUeoIDxSCPQ5r-1">
          <mxGeometry x="430" y="575" width="40" height="30" as="geometry" />
        </mxCell>
      </root>
    </mxGraphModel>
  </diagram>
  <diagram name="E6" id="XqkrRVl3aU81T4mb19Wg">
    <mxGraphModel grid="1" page="1" gridSize="10" guides="1" tooltips="1" connect="1" arrows="1" fold="1" pageScale="1" pageWidth="1100" pageHeight="1700" math="0" shadow="0">
      <root>
        <mxCell id="dsmqkjeA-dc1daqrTDCl-0" />
        <mxCell id="dsmqkjeA-dc1daqrTDCl-1" parent="dsmqkjeA-dc1daqrTDCl-0" />
        <mxCell id="dsmqkjeA-dc1daqrTDCl-2" value="&lt;h1&gt;Ejercicio 6&lt;/h1&gt;&lt;p&gt;Ingresar dos números por teclado y almacenar el resultado de la suma en memoria&lt;/p&gt;" style="text;html=1;strokeColor=none;fillColor=none;spacing=5;spacingTop=-20;whiteSpace=wrap;overflow=hidden;rounded=0;" parent="dsmqkjeA-dc1daqrTDCl-1" vertex="1">
          <mxGeometry x="10" y="30" width="1070" height="80" as="geometry" />
        </mxCell>
        <mxCell id="dsmqkjeA-dc1daqrTDCl-3" value="Facundo Masino - SPD - Unidad 5" style="text;html=1;strokeColor=none;fillColor=none;align=center;verticalAlign=middle;whiteSpace=wrap;rounded=0;" parent="dsmqkjeA-dc1daqrTDCl-1" vertex="1">
          <mxGeometry x="886" y="4" width="210" height="30" as="geometry" />
        </mxCell>
        <mxCell id="dsmqkjeA-dc1daqrTDCl-4" style="edgeStyle=orthogonalEdgeStyle;rounded=0;orthogonalLoop=1;jettySize=auto;html=1;endArrow=none;endFill=0;" parent="dsmqkjeA-dc1daqrTDCl-1" source="dsmqkjeA-dc1daqrTDCl-5" edge="1">
          <mxGeometry relative="1" as="geometry">
            <mxPoint x="550" y="300" as="targetPoint" />
          </mxGeometry>
        </mxCell>
        <mxCell id="dsmqkjeA-dc1daqrTDCl-5" value="I" style="ellipse;whiteSpace=wrap;html=1;aspect=fixed;" parent="dsmqkjeA-dc1daqrTDCl-1" vertex="1">
          <mxGeometry x="520" y="200" width="60" height="60" as="geometry" />
        </mxCell>
        <mxCell id="dsmqkjeA-dc1daqrTDCl-6" value="" style="edgeStyle=orthogonalEdgeStyle;rounded=0;orthogonalLoop=1;jettySize=auto;html=1;endArrow=none;endFill=0;" parent="dsmqkjeA-dc1daqrTDCl-1" source="dsmqkjeA-dc1daqrTDCl-7" target="dsmqkjeA-dc1daqrTDCl-9" edge="1">
          <mxGeometry relative="1" as="geometry" />
        </mxCell>
        <mxCell id="dsmqkjeA-dc1daqrTDCl-7" value="LEA 3000" style="shape=trapezoid;perimeter=trapezoidPerimeter;whiteSpace=wrap;html=1;fixedSize=1;fontFamily=Helvetica;fontSize=11;fontColor=default;direction=west;" parent="dsmqkjeA-dc1daqrTDCl-1" vertex="1">
          <mxGeometry x="490" y="300" width="120" height="30" as="geometry" />
        </mxCell>
        <mxCell id="dsmqkjeA-dc1daqrTDCl-8" style="edgeStyle=orthogonalEdgeStyle;rounded=0;orthogonalLoop=1;jettySize=auto;html=1;endArrow=none;endFill=0;" parent="dsmqkjeA-dc1daqrTDCl-1" source="dsmqkjeA-dc1daqrTDCl-9" edge="1">
          <mxGeometry relative="1" as="geometry">
            <mxPoint x="550" y="410" as="targetPoint" />
          </mxGeometry>
        </mxCell>
        <mxCell id="dsmqkjeA-dc1daqrTDCl-9" value="ALM NUM" style="rounded=0;whiteSpace=wrap;html=1;" parent="dsmqkjeA-dc1daqrTDCl-1" vertex="1">
          <mxGeometry x="490" y="350" width="120" height="30" as="geometry" />
        </mxCell>
        <mxCell id="dsmqkjeA-dc1daqrTDCl-10" value="" style="edgeStyle=orthogonalEdgeStyle;rounded=0;orthogonalLoop=1;jettySize=auto;html=1;endArrow=none;endFill=0;" parent="dsmqkjeA-dc1daqrTDCl-1" source="dsmqkjeA-dc1daqrTDCl-11" target="dsmqkjeA-dc1daqrTDCl-12" edge="1">
          <mxGeometry relative="1" as="geometry" />
        </mxCell>
        <mxCell id="dsmqkjeA-dc1daqrTDCl-11" value="LEA 3000" style="shape=trapezoid;perimeter=trapezoidPerimeter;whiteSpace=wrap;html=1;fixedSize=1;fontFamily=Helvetica;fontSize=11;fontColor=default;direction=west;" parent="dsmqkjeA-dc1daqrTDCl-1" vertex="1">
          <mxGeometry x="490" y="400" width="120" height="30" as="geometry" />
        </mxCell>
        <mxCell id="dsmqkjeA-dc1daqrTDCl-12" value="SUM NUM" style="rounded=0;whiteSpace=wrap;html=1;" parent="dsmqkjeA-dc1daqrTDCl-1" vertex="1">
          <mxGeometry x="490" y="450" width="120" height="30" as="geometry" />
        </mxCell>
        <mxCell id="dsmqkjeA-dc1daqrTDCl-13" value="" style="edgeStyle=orthogonalEdgeStyle;rounded=0;orthogonalLoop=1;jettySize=auto;html=1;endArrow=none;endFill=0;" parent="dsmqkjeA-dc1daqrTDCl-1" source="dsmqkjeA-dc1daqrTDCl-14" target="dsmqkjeA-dc1daqrTDCl-12" edge="1">
          <mxGeometry relative="1" as="geometry" />
        </mxCell>
        <mxCell id="dsmqkjeA-dc1daqrTDCl-14" value="PAR" style="ellipse;whiteSpace=wrap;html=1;aspect=fixed;" parent="dsmqkjeA-dc1daqrTDCl-1" vertex="1">
          <mxGeometry x="520" y="560" width="60" height="60" as="geometry" />
        </mxCell>
        <mxCell id="dsmqkjeA-dc1daqrTDCl-15" value="ALM RESULTADO" style="rounded=0;whiteSpace=wrap;html=1;" parent="dsmqkjeA-dc1daqrTDCl-1" vertex="1">
          <mxGeometry x="490" y="500" width="120" height="30" as="geometry" />
        </mxCell>
        <mxCell id="eNh6iEEhBHUWx1y1-ZOR-0" value="00" style="text;html=1;align=center;verticalAlign=middle;resizable=0;points=[];autosize=1;strokeColor=none;fillColor=none;fontSize=11;fontFamily=Helvetica;fontColor=default;" vertex="1" parent="dsmqkjeA-dc1daqrTDCl-1">
          <mxGeometry x="430" y="300" width="40" height="30" as="geometry" />
        </mxCell>
        <mxCell id="eNh6iEEhBHUWx1y1-ZOR-1" value="01" style="text;html=1;align=center;verticalAlign=middle;resizable=0;points=[];autosize=1;strokeColor=none;fillColor=none;fontSize=11;fontFamily=Helvetica;fontColor=default;" vertex="1" parent="dsmqkjeA-dc1daqrTDCl-1">
          <mxGeometry x="430" y="350" width="40" height="30" as="geometry" />
        </mxCell>
        <mxCell id="eNh6iEEhBHUWx1y1-ZOR-2" value="02" style="text;html=1;align=center;verticalAlign=middle;resizable=0;points=[];autosize=1;strokeColor=none;fillColor=none;fontSize=11;fontFamily=Helvetica;fontColor=default;" vertex="1" parent="dsmqkjeA-dc1daqrTDCl-1">
          <mxGeometry x="430" y="400" width="40" height="30" as="geometry" />
        </mxCell>
        <mxCell id="eNh6iEEhBHUWx1y1-ZOR-3" value="03" style="text;html=1;align=center;verticalAlign=middle;resizable=0;points=[];autosize=1;strokeColor=none;fillColor=none;fontSize=11;fontFamily=Helvetica;fontColor=default;" vertex="1" parent="dsmqkjeA-dc1daqrTDCl-1">
          <mxGeometry x="430" y="450" width="40" height="30" as="geometry" />
        </mxCell>
        <mxCell id="eNh6iEEhBHUWx1y1-ZOR-4" value="04" style="text;html=1;align=center;verticalAlign=middle;resizable=0;points=[];autosize=1;strokeColor=none;fillColor=none;fontSize=11;fontFamily=Helvetica;fontColor=default;" vertex="1" parent="dsmqkjeA-dc1daqrTDCl-1">
          <mxGeometry x="430" y="500" width="40" height="30" as="geometry" />
        </mxCell>
        <mxCell id="V_yJoxPThP1AYJTTsG7b-0" value="05" style="text;html=1;align=center;verticalAlign=middle;resizable=0;points=[];autosize=1;strokeColor=none;fillColor=none;fontSize=11;fontFamily=Helvetica;fontColor=default;" vertex="1" parent="dsmqkjeA-dc1daqrTDCl-1">
          <mxGeometry x="430" y="575" width="40" height="30" as="geometry" />
        </mxCell>
      </root>
    </mxGraphModel>
  </diagram>
  <diagram name="E7" id="t-zVHYdTUTOnjg8C2wv6">
    <mxGraphModel grid="1" page="1" gridSize="10" guides="1" tooltips="1" connect="1" arrows="1" fold="1" pageScale="1" pageWidth="1100" pageHeight="1700" math="0" shadow="0">
      <root>
        <mxCell id="BumC1jFxdxTSm2DN8qLn-0" />
        <mxCell id="BumC1jFxdxTSm2DN8qLn-1" parent="BumC1jFxdxTSm2DN8qLn-0" />
        <mxCell id="BumC1jFxdxTSm2DN8qLn-2" value="&lt;h1&gt;Ejercicio 7&lt;/h1&gt;&lt;p&gt;Ingresar un número y mostrar un 1 (uno) si es igual a 10 (diez), en caso contrario mostrar un 0&lt;br&gt;(cero).&lt;/p&gt;" style="text;html=1;strokeColor=none;fillColor=none;spacing=5;spacingTop=-20;whiteSpace=wrap;overflow=hidden;rounded=0;" parent="BumC1jFxdxTSm2DN8qLn-1" vertex="1">
          <mxGeometry x="10" y="30" width="1070" height="80" as="geometry" />
        </mxCell>
        <mxCell id="BumC1jFxdxTSm2DN8qLn-3" value="Facundo Masino - SPD - Unidad 5" style="text;html=1;strokeColor=none;fillColor=none;align=center;verticalAlign=middle;whiteSpace=wrap;rounded=0;" parent="BumC1jFxdxTSm2DN8qLn-1" vertex="1">
          <mxGeometry x="886" y="4" width="210" height="30" as="geometry" />
        </mxCell>
        <mxCell id="BumC1jFxdxTSm2DN8qLn-4" style="edgeStyle=orthogonalEdgeStyle;rounded=0;orthogonalLoop=1;jettySize=auto;html=1;endArrow=none;endFill=0;" parent="BumC1jFxdxTSm2DN8qLn-1" source="BumC1jFxdxTSm2DN8qLn-5" edge="1">
          <mxGeometry relative="1" as="geometry">
            <mxPoint x="550" y="300" as="targetPoint" />
          </mxGeometry>
        </mxCell>
        <mxCell id="BumC1jFxdxTSm2DN8qLn-5" value="I" style="ellipse;whiteSpace=wrap;html=1;aspect=fixed;" parent="BumC1jFxdxTSm2DN8qLn-1" vertex="1">
          <mxGeometry x="520" y="200" width="60" height="60" as="geometry" />
        </mxCell>
        <mxCell id="BumC1jFxdxTSm2DN8qLn-6" value="" style="edgeStyle=orthogonalEdgeStyle;rounded=0;orthogonalLoop=1;jettySize=auto;html=1;endArrow=none;endFill=0;" parent="BumC1jFxdxTSm2DN8qLn-1" source="BumC1jFxdxTSm2DN8qLn-7" target="BumC1jFxdxTSm2DN8qLn-9" edge="1">
          <mxGeometry relative="1" as="geometry" />
        </mxCell>
        <mxCell id="BumC1jFxdxTSm2DN8qLn-7" value="LEA 3000" style="shape=trapezoid;perimeter=trapezoidPerimeter;whiteSpace=wrap;html=1;fixedSize=1;fontFamily=Helvetica;fontSize=11;fontColor=default;direction=west;" parent="BumC1jFxdxTSm2DN8qLn-1" vertex="1">
          <mxGeometry x="490" y="300" width="120" height="30" as="geometry" />
        </mxCell>
        <mxCell id="BumC1jFxdxTSm2DN8qLn-8" style="edgeStyle=orthogonalEdgeStyle;rounded=0;orthogonalLoop=1;jettySize=auto;html=1;endArrow=none;endFill=0;" parent="BumC1jFxdxTSm2DN8qLn-1" source="BumC1jFxdxTSm2DN8qLn-9" edge="1">
          <mxGeometry relative="1" as="geometry">
            <mxPoint x="550" y="410" as="targetPoint" />
          </mxGeometry>
        </mxCell>
        <mxCell id="BumC1jFxdxTSm2DN8qLn-9" value="ALM NUM" style="rounded=0;whiteSpace=wrap;html=1;" parent="BumC1jFxdxTSm2DN8qLn-1" vertex="1">
          <mxGeometry x="490" y="350" width="120" height="30" as="geometry" />
        </mxCell>
        <mxCell id="BumC1jFxdxTSm2DN8qLn-10" value="" style="edgeStyle=orthogonalEdgeStyle;rounded=0;orthogonalLoop=1;jettySize=auto;html=1;endArrow=none;endFill=0;" parent="BumC1jFxdxTSm2DN8qLn-1" source="BumC1jFxdxTSm2DN8qLn-11" target="BumC1jFxdxTSm2DN8qLn-12" edge="1">
          <mxGeometry relative="1" as="geometry" />
        </mxCell>
        <mxCell id="BumC1jFxdxTSm2DN8qLn-11" value="CAN 10" style="rounded=0;whiteSpace=wrap;html=1;" parent="BumC1jFxdxTSm2DN8qLn-1" vertex="1">
          <mxGeometry x="490" y="400" width="120" height="30" as="geometry" />
        </mxCell>
        <mxCell id="BumC1jFxdxTSm2DN8qLn-12" value="RES NUM" style="rounded=0;whiteSpace=wrap;html=1;" parent="BumC1jFxdxTSm2DN8qLn-1" vertex="1">
          <mxGeometry x="490" y="450" width="120" height="30" as="geometry" />
        </mxCell>
        <mxCell id="BumC1jFxdxTSm2DN8qLn-13" value="" style="edgeStyle=orthogonalEdgeStyle;rounded=0;orthogonalLoop=1;jettySize=auto;html=1;endArrow=none;endFill=0;" parent="BumC1jFxdxTSm2DN8qLn-1" source="BumC1jFxdxTSm2DN8qLn-14" target="BumC1jFxdxTSm2DN8qLn-12" edge="1">
          <mxGeometry relative="1" as="geometry" />
        </mxCell>
        <mxCell id="BumC1jFxdxTSm2DN8qLn-14" value="PAR" style="ellipse;whiteSpace=wrap;html=1;aspect=fixed;" parent="BumC1jFxdxTSm2DN8qLn-1" vertex="1">
          <mxGeometry x="520" y="690" width="60" height="60" as="geometry" />
        </mxCell>
        <mxCell id="BumC1jFxdxTSm2DN8qLn-16" value="00" style="text;html=1;align=center;verticalAlign=middle;resizable=0;points=[];autosize=1;strokeColor=none;fillColor=none;fontSize=11;fontFamily=Helvetica;fontColor=default;" parent="BumC1jFxdxTSm2DN8qLn-1" vertex="1">
          <mxGeometry x="430" y="300" width="40" height="30" as="geometry" />
        </mxCell>
        <mxCell id="BumC1jFxdxTSm2DN8qLn-17" value="01" style="text;html=1;align=center;verticalAlign=middle;resizable=0;points=[];autosize=1;strokeColor=none;fillColor=none;fontSize=11;fontFamily=Helvetica;fontColor=default;" parent="BumC1jFxdxTSm2DN8qLn-1" vertex="1">
          <mxGeometry x="430" y="350" width="40" height="30" as="geometry" />
        </mxCell>
        <mxCell id="BumC1jFxdxTSm2DN8qLn-18" value="02" style="text;html=1;align=center;verticalAlign=middle;resizable=0;points=[];autosize=1;strokeColor=none;fillColor=none;fontSize=11;fontFamily=Helvetica;fontColor=default;" parent="BumC1jFxdxTSm2DN8qLn-1" vertex="1">
          <mxGeometry x="430" y="400" width="40" height="30" as="geometry" />
        </mxCell>
        <mxCell id="BumC1jFxdxTSm2DN8qLn-19" value="03" style="text;html=1;align=center;verticalAlign=middle;resizable=0;points=[];autosize=1;strokeColor=none;fillColor=none;fontSize=11;fontFamily=Helvetica;fontColor=default;" parent="BumC1jFxdxTSm2DN8qLn-1" vertex="1">
          <mxGeometry x="430" y="450" width="40" height="30" as="geometry" />
        </mxCell>
        <mxCell id="BumC1jFxdxTSm2DN8qLn-20" value="04" style="text;html=1;align=center;verticalAlign=middle;resizable=0;points=[];autosize=1;strokeColor=none;fillColor=none;fontSize=11;fontFamily=Helvetica;fontColor=default;" parent="BumC1jFxdxTSm2DN8qLn-1" vertex="1">
          <mxGeometry x="430" y="515" width="40" height="30" as="geometry" />
        </mxCell>
        <mxCell id="Usbup8jNs0c1tR82yCCp-2" style="edgeStyle=orthogonalEdgeStyle;shape=connector;rounded=0;orthogonalLoop=1;jettySize=auto;html=1;labelBackgroundColor=default;strokeColor=default;fontFamily=Helvetica;fontSize=11;fontColor=default;endArrow=none;endFill=0;" edge="1" parent="BumC1jFxdxTSm2DN8qLn-1" source="Usbup8jNs0c1tR82yCCp-0">
          <mxGeometry relative="1" as="geometry">
            <mxPoint x="650" y="530" as="targetPoint" />
          </mxGeometry>
        </mxCell>
        <mxCell id="Usbup8jNs0c1tR82yCCp-0" value="JZ" style="rhombus;whiteSpace=wrap;html=1;fontFamily=Helvetica;fontSize=11;fontColor=default;" vertex="1" parent="BumC1jFxdxTSm2DN8qLn-1">
          <mxGeometry x="510" y="490" width="80" height="80" as="geometry" />
        </mxCell>
        <mxCell id="c-mbHzroBgL795Jxf7Im-4" style="edgeStyle=orthogonalEdgeStyle;shape=connector;rounded=0;orthogonalLoop=1;jettySize=auto;html=1;labelBackgroundColor=default;strokeColor=default;fontFamily=Helvetica;fontSize=11;fontColor=default;endArrow=none;endFill=0;" edge="1" parent="BumC1jFxdxTSm2DN8qLn-1" source="Usbup8jNs0c1tR82yCCp-3">
          <mxGeometry relative="1" as="geometry">
            <mxPoint x="695" y="590" as="targetPoint" />
          </mxGeometry>
        </mxCell>
        <mxCell id="Usbup8jNs0c1tR82yCCp-3" value="CAN 1" style="rounded=0;whiteSpace=wrap;html=1;" vertex="1" parent="BumC1jFxdxTSm2DN8qLn-1">
          <mxGeometry x="650" y="515" width="90" height="30" as="geometry" />
        </mxCell>
        <mxCell id="Usbup8jNs0c1tR82yCCp-4" value="CAN 0" style="rounded=0;whiteSpace=wrap;html=1;" vertex="1" parent="BumC1jFxdxTSm2DN8qLn-1">
          <mxGeometry x="505" y="580" width="90" height="30" as="geometry" />
        </mxCell>
        <mxCell id="c-mbHzroBgL795Jxf7Im-0" value="ESA 6000" style="shape=trapezoid;perimeter=trapezoidPerimeter;whiteSpace=wrap;html=1;fixedSize=1;fontFamily=Helvetica;fontSize=11;fontColor=default;" vertex="1" parent="BumC1jFxdxTSm2DN8qLn-1">
          <mxGeometry x="490" y="640" width="120" height="30" as="geometry" />
        </mxCell>
        <mxCell id="c-mbHzroBgL795Jxf7Im-1" value="05" style="text;html=1;align=center;verticalAlign=middle;resizable=0;points=[];autosize=1;strokeColor=none;fillColor=none;fontSize=11;fontFamily=Helvetica;fontColor=default;" vertex="1" parent="BumC1jFxdxTSm2DN8qLn-1">
          <mxGeometry x="430" y="580" width="40" height="30" as="geometry" />
        </mxCell>
        <mxCell id="c-mbHzroBgL795Jxf7Im-2" value="06" style="text;html=1;align=center;verticalAlign=middle;resizable=0;points=[];autosize=1;strokeColor=none;fillColor=none;fontSize=11;fontFamily=Helvetica;fontColor=default;" vertex="1" parent="BumC1jFxdxTSm2DN8qLn-1">
          <mxGeometry x="430" y="640" width="40" height="30" as="geometry" />
        </mxCell>
        <mxCell id="c-mbHzroBgL795Jxf7Im-3" value="07" style="text;html=1;align=center;verticalAlign=middle;resizable=0;points=[];autosize=1;strokeColor=none;fillColor=none;fontSize=11;fontFamily=Helvetica;fontColor=default;" vertex="1" parent="BumC1jFxdxTSm2DN8qLn-1">
          <mxGeometry x="430" y="705" width="40" height="30" as="geometry" />
        </mxCell>
        <mxCell id="c-mbHzroBgL795Jxf7Im-8" style="edgeStyle=orthogonalEdgeStyle;rounded=0;orthogonalLoop=1;jettySize=auto;html=1;labelBackgroundColor=default;strokeColor=default;fontFamily=Helvetica;fontSize=11;fontColor=default;endArrow=classic;endFill=1;" edge="1" parent="BumC1jFxdxTSm2DN8qLn-1" source="c-mbHzroBgL795Jxf7Im-5">
          <mxGeometry relative="1" as="geometry">
            <mxPoint x="560" y="630" as="targetPoint" />
            <Array as="points">
              <mxPoint x="771" y="595" />
            </Array>
          </mxGeometry>
        </mxCell>
        <mxCell id="c-mbHzroBgL795Jxf7Im-5" value="JI 06" style="shape=offPageConnector;whiteSpace=wrap;html=1;fontFamily=Helvetica;fontSize=11;fontColor=default;direction=north;size=0.2857142857142857;" vertex="1" parent="BumC1jFxdxTSm2DN8qLn-1">
          <mxGeometry x="655" y="580" width="85" height="30" as="geometry" />
        </mxCell>
        <mxCell id="c-mbHzroBgL795Jxf7Im-9" value="08" style="text;html=1;align=center;verticalAlign=middle;resizable=0;points=[];autosize=1;strokeColor=none;fillColor=none;fontSize=11;fontFamily=Helvetica;fontColor=default;" vertex="1" parent="BumC1jFxdxTSm2DN8qLn-1">
          <mxGeometry x="780" y="515" width="40" height="30" as="geometry" />
        </mxCell>
        <mxCell id="gNk1KPRtZP1pZzUS6XFh-0" value="09" style="text;html=1;align=center;verticalAlign=middle;resizable=0;points=[];autosize=1;strokeColor=none;fillColor=none;fontSize=11;fontFamily=Helvetica;fontColor=default;" vertex="1" parent="BumC1jFxdxTSm2DN8qLn-1">
          <mxGeometry x="780" y="580" width="40" height="30" as="geometry" />
        </mxCell>
      </root>
    </mxGraphModel>
  </diagram>
  <diagram name="E8" id="09bkVfpq_HXVxAMUHC4k">
    <mxGraphModel grid="1" page="1" gridSize="10" guides="1" tooltips="1" connect="1" arrows="1" fold="1" pageScale="1" pageWidth="1100" pageHeight="1700" math="0" shadow="0">
      <root>
        <mxCell id="Ol1kJiu8jdqvN5cHsfjE-0" />
        <mxCell id="Ol1kJiu8jdqvN5cHsfjE-1" parent="Ol1kJiu8jdqvN5cHsfjE-0" />
        <mxCell id="Ol1kJiu8jdqvN5cHsfjE-2" value="&lt;h1&gt;Ejercicio 8&lt;/h1&gt;&lt;p&gt;Ingresar dos números y mostrar el mayor&lt;br&gt;&lt;/p&gt;" style="text;html=1;strokeColor=none;fillColor=none;spacing=5;spacingTop=-20;whiteSpace=wrap;overflow=hidden;rounded=0;" parent="Ol1kJiu8jdqvN5cHsfjE-1" vertex="1">
          <mxGeometry x="10" y="30" width="1070" height="80" as="geometry" />
        </mxCell>
        <mxCell id="Ol1kJiu8jdqvN5cHsfjE-3" value="Facundo Masino - SPD - Unidad 5" style="text;html=1;strokeColor=none;fillColor=none;align=center;verticalAlign=middle;whiteSpace=wrap;rounded=0;" parent="Ol1kJiu8jdqvN5cHsfjE-1" vertex="1">
          <mxGeometry x="886" y="4" width="210" height="30" as="geometry" />
        </mxCell>
        <mxCell id="Ol1kJiu8jdqvN5cHsfjE-4" style="edgeStyle=orthogonalEdgeStyle;rounded=0;orthogonalLoop=1;jettySize=auto;html=1;endArrow=none;endFill=0;" parent="Ol1kJiu8jdqvN5cHsfjE-1" source="Ol1kJiu8jdqvN5cHsfjE-5" edge="1">
          <mxGeometry relative="1" as="geometry">
            <mxPoint x="550" y="300" as="targetPoint" />
          </mxGeometry>
        </mxCell>
        <mxCell id="Ol1kJiu8jdqvN5cHsfjE-5" value="I" style="ellipse;whiteSpace=wrap;html=1;aspect=fixed;" parent="Ol1kJiu8jdqvN5cHsfjE-1" vertex="1">
          <mxGeometry x="520" y="200" width="60" height="60" as="geometry" />
        </mxCell>
        <mxCell id="Ol1kJiu8jdqvN5cHsfjE-6" value="" style="edgeStyle=orthogonalEdgeStyle;rounded=0;orthogonalLoop=1;jettySize=auto;html=1;endArrow=none;endFill=0;" parent="Ol1kJiu8jdqvN5cHsfjE-1" source="Ol1kJiu8jdqvN5cHsfjE-7" target="Ol1kJiu8jdqvN5cHsfjE-9" edge="1">
          <mxGeometry relative="1" as="geometry" />
        </mxCell>
        <mxCell id="Ol1kJiu8jdqvN5cHsfjE-7" value="LEA 3000" style="shape=trapezoid;perimeter=trapezoidPerimeter;whiteSpace=wrap;html=1;fixedSize=1;fontFamily=Helvetica;fontSize=11;fontColor=default;direction=west;" parent="Ol1kJiu8jdqvN5cHsfjE-1" vertex="1">
          <mxGeometry x="490" y="300" width="120" height="30" as="geometry" />
        </mxCell>
        <mxCell id="Ol1kJiu8jdqvN5cHsfjE-8" style="edgeStyle=orthogonalEdgeStyle;rounded=0;orthogonalLoop=1;jettySize=auto;html=1;endArrow=none;endFill=0;" parent="Ol1kJiu8jdqvN5cHsfjE-1" source="Ol1kJiu8jdqvN5cHsfjE-9" edge="1">
          <mxGeometry relative="1" as="geometry">
            <mxPoint x="550" y="410" as="targetPoint" />
          </mxGeometry>
        </mxCell>
        <mxCell id="Ol1kJiu8jdqvN5cHsfjE-9" value="ALM NUM1" style="rounded=0;whiteSpace=wrap;html=1;" parent="Ol1kJiu8jdqvN5cHsfjE-1" vertex="1">
          <mxGeometry x="490" y="350" width="120" height="30" as="geometry" />
        </mxCell>
        <mxCell id="Ol1kJiu8jdqvN5cHsfjE-10" value="" style="edgeStyle=orthogonalEdgeStyle;rounded=0;orthogonalLoop=1;jettySize=auto;html=1;endArrow=none;endFill=0;" parent="Ol1kJiu8jdqvN5cHsfjE-1" source="Ol1kJiu8jdqvN5cHsfjE-11" target="Ol1kJiu8jdqvN5cHsfjE-12" edge="1">
          <mxGeometry relative="1" as="geometry" />
        </mxCell>
        <mxCell id="Ol1kJiu8jdqvN5cHsfjE-11" value="LEA 3000" style="shape=trapezoid;perimeter=trapezoidPerimeter;whiteSpace=wrap;html=1;fixedSize=1;fontFamily=Helvetica;fontSize=11;fontColor=default;direction=west;" parent="Ol1kJiu8jdqvN5cHsfjE-1" vertex="1">
          <mxGeometry x="490" y="400" width="120" height="30" as="geometry" />
        </mxCell>
        <mxCell id="Ol1kJiu8jdqvN5cHsfjE-12" value="RES NUM2" style="rounded=0;whiteSpace=wrap;html=1;" parent="Ol1kJiu8jdqvN5cHsfjE-1" vertex="1">
          <mxGeometry x="490" y="480" width="120" height="30" as="geometry" />
        </mxCell>
        <mxCell id="Ol1kJiu8jdqvN5cHsfjE-13" value="" style="edgeStyle=orthogonalEdgeStyle;rounded=0;orthogonalLoop=1;jettySize=auto;html=1;endArrow=none;endFill=0;" parent="Ol1kJiu8jdqvN5cHsfjE-1" source="Ol1kJiu8jdqvN5cHsfjE-14" target="Ol1kJiu8jdqvN5cHsfjE-12" edge="1">
          <mxGeometry relative="1" as="geometry" />
        </mxCell>
        <mxCell id="Ol1kJiu8jdqvN5cHsfjE-14" value="PAR" style="ellipse;whiteSpace=wrap;html=1;aspect=fixed;" parent="Ol1kJiu8jdqvN5cHsfjE-1" vertex="1">
          <mxGeometry x="520" y="720" width="60" height="60" as="geometry" />
        </mxCell>
        <mxCell id="Ol1kJiu8jdqvN5cHsfjE-15" value="00" style="text;html=1;align=center;verticalAlign=middle;resizable=0;points=[];autosize=1;strokeColor=none;fillColor=none;fontSize=11;fontFamily=Helvetica;fontColor=default;" parent="Ol1kJiu8jdqvN5cHsfjE-1" vertex="1">
          <mxGeometry x="430" y="300" width="40" height="30" as="geometry" />
        </mxCell>
        <mxCell id="Ol1kJiu8jdqvN5cHsfjE-16" value="01" style="text;html=1;align=center;verticalAlign=middle;resizable=0;points=[];autosize=1;strokeColor=none;fillColor=none;fontSize=11;fontFamily=Helvetica;fontColor=default;" parent="Ol1kJiu8jdqvN5cHsfjE-1" vertex="1">
          <mxGeometry x="430" y="350" width="40" height="30" as="geometry" />
        </mxCell>
        <mxCell id="Ol1kJiu8jdqvN5cHsfjE-17" value="02" style="text;html=1;align=center;verticalAlign=middle;resizable=0;points=[];autosize=1;strokeColor=none;fillColor=none;fontSize=11;fontFamily=Helvetica;fontColor=default;" parent="Ol1kJiu8jdqvN5cHsfjE-1" vertex="1">
          <mxGeometry x="430" y="400" width="40" height="30" as="geometry" />
        </mxCell>
        <mxCell id="Ol1kJiu8jdqvN5cHsfjE-20" style="edgeStyle=orthogonalEdgeStyle;shape=connector;rounded=0;orthogonalLoop=1;jettySize=auto;html=1;labelBackgroundColor=default;strokeColor=default;fontFamily=Helvetica;fontSize=11;fontColor=default;endArrow=none;endFill=0;" parent="Ol1kJiu8jdqvN5cHsfjE-1" source="Ol1kJiu8jdqvN5cHsfjE-21" edge="1">
          <mxGeometry relative="1" as="geometry">
            <mxPoint x="650" y="560" as="targetPoint" />
          </mxGeometry>
        </mxCell>
        <mxCell id="Ol1kJiu8jdqvN5cHsfjE-21" value="JN" style="rhombus;whiteSpace=wrap;html=1;fontFamily=Helvetica;fontSize=11;fontColor=default;" parent="Ol1kJiu8jdqvN5cHsfjE-1" vertex="1">
          <mxGeometry x="510" y="520" width="80" height="80" as="geometry" />
        </mxCell>
        <mxCell id="Ol1kJiu8jdqvN5cHsfjE-22" style="edgeStyle=orthogonalEdgeStyle;shape=connector;rounded=0;orthogonalLoop=1;jettySize=auto;html=1;labelBackgroundColor=default;strokeColor=default;fontFamily=Helvetica;fontSize=11;fontColor=default;endArrow=none;endFill=0;" parent="Ol1kJiu8jdqvN5cHsfjE-1" source="Ol1kJiu8jdqvN5cHsfjE-23" edge="1">
          <mxGeometry relative="1" as="geometry">
            <mxPoint x="695" y="620" as="targetPoint" />
          </mxGeometry>
        </mxCell>
        <mxCell id="Ol1kJiu8jdqvN5cHsfjE-23" value="CAR NUM2" style="rounded=0;whiteSpace=wrap;html=1;" parent="Ol1kJiu8jdqvN5cHsfjE-1" vertex="1">
          <mxGeometry x="650" y="545" width="90" height="30" as="geometry" />
        </mxCell>
        <mxCell id="Ol1kJiu8jdqvN5cHsfjE-24" value="CAR NUM1" style="rounded=0;whiteSpace=wrap;html=1;" parent="Ol1kJiu8jdqvN5cHsfjE-1" vertex="1">
          <mxGeometry x="505" y="610" width="90" height="30" as="geometry" />
        </mxCell>
        <mxCell id="Ol1kJiu8jdqvN5cHsfjE-25" value="ESA 6000" style="shape=trapezoid;perimeter=trapezoidPerimeter;whiteSpace=wrap;html=1;fixedSize=1;fontFamily=Helvetica;fontSize=11;fontColor=default;" parent="Ol1kJiu8jdqvN5cHsfjE-1" vertex="1">
          <mxGeometry x="490" y="670" width="120" height="30" as="geometry" />
        </mxCell>
        <mxCell id="Ol1kJiu8jdqvN5cHsfjE-29" style="edgeStyle=orthogonalEdgeStyle;rounded=0;orthogonalLoop=1;jettySize=auto;html=1;labelBackgroundColor=default;strokeColor=default;fontFamily=Helvetica;fontSize=11;fontColor=default;endArrow=classic;endFill=1;" parent="Ol1kJiu8jdqvN5cHsfjE-1" source="Ol1kJiu8jdqvN5cHsfjE-30" edge="1">
          <mxGeometry relative="1" as="geometry">
            <mxPoint x="560" y="660" as="targetPoint" />
            <Array as="points">
              <mxPoint x="771" y="625" />
            </Array>
          </mxGeometry>
        </mxCell>
        <mxCell id="Ol1kJiu8jdqvN5cHsfjE-30" value="JI 07" style="shape=offPageConnector;whiteSpace=wrap;html=1;fontFamily=Helvetica;fontSize=11;fontColor=default;direction=north;size=0.2857142857142857;" parent="Ol1kJiu8jdqvN5cHsfjE-1" vertex="1">
          <mxGeometry x="655" y="610" width="85" height="30" as="geometry" />
        </mxCell>
        <mxCell id="1NqHan-n3eE96XiH_3ls-0" value="ALM NUM2" style="rounded=0;whiteSpace=wrap;html=1;" vertex="1" parent="Ol1kJiu8jdqvN5cHsfjE-1">
          <mxGeometry x="490" y="440" width="120" height="30" as="geometry" />
        </mxCell>
        <mxCell id="1NqHan-n3eE96XiH_3ls-1" value="03" style="text;html=1;align=center;verticalAlign=middle;resizable=0;points=[];autosize=1;strokeColor=none;fillColor=none;fontSize=11;fontFamily=Helvetica;fontColor=default;" vertex="1" parent="Ol1kJiu8jdqvN5cHsfjE-1">
          <mxGeometry x="430" y="440" width="40" height="30" as="geometry" />
        </mxCell>
        <mxCell id="1NqHan-n3eE96XiH_3ls-2" value="04" style="text;html=1;align=center;verticalAlign=middle;resizable=0;points=[];autosize=1;strokeColor=none;fillColor=none;fontSize=11;fontFamily=Helvetica;fontColor=default;" vertex="1" parent="Ol1kJiu8jdqvN5cHsfjE-1">
          <mxGeometry x="430" y="480" width="40" height="30" as="geometry" />
        </mxCell>
        <mxCell id="1NqHan-n3eE96XiH_3ls-3" value="05" style="text;html=1;align=center;verticalAlign=middle;resizable=0;points=[];autosize=1;strokeColor=none;fillColor=none;fontSize=11;fontFamily=Helvetica;fontColor=default;" vertex="1" parent="Ol1kJiu8jdqvN5cHsfjE-1">
          <mxGeometry x="430" y="545" width="40" height="30" as="geometry" />
        </mxCell>
        <mxCell id="K-YmrD1hwdUX0iahCXhf-0" value="06" style="text;html=1;align=center;verticalAlign=middle;resizable=0;points=[];autosize=1;strokeColor=none;fillColor=none;fontSize=11;fontFamily=Helvetica;fontColor=default;" vertex="1" parent="Ol1kJiu8jdqvN5cHsfjE-1">
          <mxGeometry x="430" y="610" width="40" height="30" as="geometry" />
        </mxCell>
        <mxCell id="K-YmrD1hwdUX0iahCXhf-1" value="07" style="text;html=1;align=center;verticalAlign=middle;resizable=0;points=[];autosize=1;strokeColor=none;fillColor=none;fontSize=11;fontFamily=Helvetica;fontColor=default;" vertex="1" parent="Ol1kJiu8jdqvN5cHsfjE-1">
          <mxGeometry x="430" y="670" width="40" height="30" as="geometry" />
        </mxCell>
        <mxCell id="b00jqeAn1BExWsuS6K1A-0" value="09" style="text;html=1;align=center;verticalAlign=middle;resizable=0;points=[];autosize=1;strokeColor=none;fillColor=none;fontSize=11;fontFamily=Helvetica;fontColor=default;" vertex="1" parent="Ol1kJiu8jdqvN5cHsfjE-1">
          <mxGeometry x="780" y="545" width="40" height="30" as="geometry" />
        </mxCell>
        <mxCell id="b00jqeAn1BExWsuS6K1A-1" value="10" style="text;html=1;align=center;verticalAlign=middle;resizable=0;points=[];autosize=1;strokeColor=none;fillColor=none;fontSize=11;fontFamily=Helvetica;fontColor=default;" vertex="1" parent="Ol1kJiu8jdqvN5cHsfjE-1">
          <mxGeometry x="780" y="610" width="40" height="30" as="geometry" />
        </mxCell>
        <mxCell id="Qb9c5_0ESZ7goJdH2bsX-0" value="08" style="text;html=1;align=center;verticalAlign=middle;resizable=0;points=[];autosize=1;strokeColor=none;fillColor=none;fontSize=11;fontFamily=Helvetica;fontColor=default;" vertex="1" parent="Ol1kJiu8jdqvN5cHsfjE-1">
          <mxGeometry x="430" y="735" width="40" height="30" as="geometry" />
        </mxCell>
      </root>
    </mxGraphModel>
  </diagram>
  <diagram name="E9" id="O6p2ktbGfF1vBDI_G7JP">
    <mxGraphModel grid="1" page="1" gridSize="10" guides="1" tooltips="1" connect="1" arrows="1" fold="1" pageScale="1" pageWidth="1169" pageHeight="1654" math="0" shadow="0">
      <root>
        <mxCell id="bZCjvs0xwWL3-SMBSXgl-0" />
        <mxCell id="bZCjvs0xwWL3-SMBSXgl-1" parent="bZCjvs0xwWL3-SMBSXgl-0" />
        <mxCell id="bZCjvs0xwWL3-SMBSXgl-2" value="&lt;h1&gt;Ejercicio 9&lt;/h1&gt;&lt;p&gt;Mostrar los dígitos decimales&lt;br&gt;&lt;/p&gt;" style="text;html=1;strokeColor=none;fillColor=none;spacing=5;spacingTop=-20;whiteSpace=wrap;overflow=hidden;rounded=0;" vertex="1" parent="bZCjvs0xwWL3-SMBSXgl-1">
          <mxGeometry x="10" y="10" width="1070" height="80" as="geometry" />
        </mxCell>
        <mxCell id="bZCjvs0xwWL3-SMBSXgl-3" value="Facundo Masino - SPD - Unidad 5" style="text;html=1;strokeColor=none;fillColor=none;align=center;verticalAlign=middle;whiteSpace=wrap;rounded=0;" vertex="1" parent="bZCjvs0xwWL3-SMBSXgl-1">
          <mxGeometry x="940" y="10" width="210" height="30" as="geometry" />
        </mxCell>
        <mxCell id="bZCjvs0xwWL3-SMBSXgl-4" style="edgeStyle=orthogonalEdgeStyle;rounded=0;orthogonalLoop=1;jettySize=auto;html=1;endArrow=none;endFill=0;" edge="1" parent="bZCjvs0xwWL3-SMBSXgl-1" source="bZCjvs0xwWL3-SMBSXgl-5">
          <mxGeometry relative="1" as="geometry">
            <mxPoint x="530" y="200" as="targetPoint" />
          </mxGeometry>
        </mxCell>
        <mxCell id="bZCjvs0xwWL3-SMBSXgl-5" value="I" style="ellipse;whiteSpace=wrap;html=1;aspect=fixed;" vertex="1" parent="bZCjvs0xwWL3-SMBSXgl-1">
          <mxGeometry x="500" y="100" width="60" height="60" as="geometry" />
        </mxCell>
        <mxCell id="bZCjvs0xwWL3-SMBSXgl-6" value="" style="edgeStyle=orthogonalEdgeStyle;rounded=0;orthogonalLoop=1;jettySize=auto;html=1;endArrow=none;endFill=0;" edge="1" parent="bZCjvs0xwWL3-SMBSXgl-1" target="bZCjvs0xwWL3-SMBSXgl-9">
          <mxGeometry relative="1" as="geometry">
            <mxPoint x="530" y="230" as="sourcePoint" />
          </mxGeometry>
        </mxCell>
        <mxCell id="bZCjvs0xwWL3-SMBSXgl-8" style="edgeStyle=orthogonalEdgeStyle;rounded=0;orthogonalLoop=1;jettySize=auto;html=1;endArrow=none;endFill=0;" edge="1" parent="bZCjvs0xwWL3-SMBSXgl-1" source="bZCjvs0xwWL3-SMBSXgl-9">
          <mxGeometry relative="1" as="geometry">
            <mxPoint x="530" y="310" as="targetPoint" />
          </mxGeometry>
        </mxCell>
        <mxCell id="bZCjvs0xwWL3-SMBSXgl-9" value="CAN 0" style="rounded=0;whiteSpace=wrap;html=1;" vertex="1" parent="bZCjvs0xwWL3-SMBSXgl-1">
          <mxGeometry x="470" y="200" width="120" height="30" as="geometry" />
        </mxCell>
        <mxCell id="bZCjvs0xwWL3-SMBSXgl-10" value="" style="edgeStyle=orthogonalEdgeStyle;rounded=0;orthogonalLoop=1;jettySize=auto;html=1;endArrow=none;endFill=0;" edge="1" parent="bZCjvs0xwWL3-SMBSXgl-1" source="bZCjvs0xwWL3-SMBSXgl-11">
          <mxGeometry relative="1" as="geometry">
            <mxPoint x="530" y="380" as="targetPoint" />
          </mxGeometry>
        </mxCell>
        <mxCell id="bZCjvs0xwWL3-SMBSXgl-11" value="CAN 9" style="rounded=0;whiteSpace=wrap;html=1;" vertex="1" parent="bZCjvs0xwWL3-SMBSXgl-1">
          <mxGeometry x="470" y="300" width="120" height="30" as="geometry" />
        </mxCell>
        <mxCell id="bZCjvs0xwWL3-SMBSXgl-13" value="" style="edgeStyle=orthogonalEdgeStyle;rounded=0;orthogonalLoop=1;jettySize=auto;html=1;endArrow=none;endFill=0;" edge="1" parent="bZCjvs0xwWL3-SMBSXgl-1" source="bZCjvs0xwWL3-SMBSXgl-19">
          <mxGeometry relative="1" as="geometry">
            <mxPoint x="530" y="410" as="targetPoint" />
          </mxGeometry>
        </mxCell>
        <mxCell id="bZCjvs0xwWL3-SMBSXgl-14" value="PAR" style="ellipse;whiteSpace=wrap;html=1;aspect=fixed;" vertex="1" parent="bZCjvs0xwWL3-SMBSXgl-1">
          <mxGeometry x="645" y="525" width="60" height="60" as="geometry" />
        </mxCell>
        <mxCell id="bZCjvs0xwWL3-SMBSXgl-15" value="00" style="text;html=1;align=center;verticalAlign=middle;resizable=0;points=[];autosize=1;strokeColor=none;fillColor=none;fontSize=11;fontFamily=Helvetica;fontColor=default;" vertex="1" parent="bZCjvs0xwWL3-SMBSXgl-1">
          <mxGeometry x="410" y="200" width="40" height="30" as="geometry" />
        </mxCell>
        <mxCell id="bZCjvs0xwWL3-SMBSXgl-16" value="01" style="text;html=1;align=center;verticalAlign=middle;resizable=0;points=[];autosize=1;strokeColor=none;fillColor=none;fontSize=11;fontFamily=Helvetica;fontColor=default;" vertex="1" parent="bZCjvs0xwWL3-SMBSXgl-1">
          <mxGeometry x="410" y="250" width="40" height="30" as="geometry" />
        </mxCell>
        <mxCell id="bZCjvs0xwWL3-SMBSXgl-17" value="02" style="text;html=1;align=center;verticalAlign=middle;resizable=0;points=[];autosize=1;strokeColor=none;fillColor=none;fontSize=11;fontFamily=Helvetica;fontColor=default;" vertex="1" parent="bZCjvs0xwWL3-SMBSXgl-1">
          <mxGeometry x="410" y="300" width="40" height="30" as="geometry" />
        </mxCell>
        <mxCell id="bZCjvs0xwWL3-SMBSXgl-20" style="edgeStyle=orthogonalEdgeStyle;shape=connector;rounded=0;orthogonalLoop=1;jettySize=auto;html=1;labelBackgroundColor=default;strokeColor=default;fontFamily=Helvetica;fontSize=11;fontColor=default;endArrow=none;endFill=0;" edge="1" parent="bZCjvs0xwWL3-SMBSXgl-1" source="1EPwTFQmy3J8QYS-fjx8-15">
          <mxGeometry relative="1" as="geometry">
            <mxPoint x="675" y="525" as="targetPoint" />
          </mxGeometry>
        </mxCell>
        <mxCell id="bZCjvs0xwWL3-SMBSXgl-21" value="CAR DIGIT" style="rounded=0;whiteSpace=wrap;html=1;" vertex="1" parent="bZCjvs0xwWL3-SMBSXgl-1">
          <mxGeometry x="630" y="405" width="90" height="30" as="geometry" />
        </mxCell>
        <mxCell id="bZCjvs0xwWL3-SMBSXgl-26" value="RES DIGIT" style="rounded=0;whiteSpace=wrap;html=1;" vertex="1" parent="bZCjvs0xwWL3-SMBSXgl-1">
          <mxGeometry x="470" y="340" width="120" height="30" as="geometry" />
        </mxCell>
        <mxCell id="bZCjvs0xwWL3-SMBSXgl-27" value="03" style="text;html=1;align=center;verticalAlign=middle;resizable=0;points=[];autosize=1;strokeColor=none;fillColor=none;fontSize=11;fontFamily=Helvetica;fontColor=default;" vertex="1" parent="bZCjvs0xwWL3-SMBSXgl-1">
          <mxGeometry x="410" y="340" width="40" height="30" as="geometry" />
        </mxCell>
        <mxCell id="bZCjvs0xwWL3-SMBSXgl-28" value="04" style="text;html=1;align=center;verticalAlign=middle;resizable=0;points=[];autosize=1;strokeColor=none;fillColor=none;fontSize=11;fontFamily=Helvetica;fontColor=default;" vertex="1" parent="bZCjvs0xwWL3-SMBSXgl-1">
          <mxGeometry x="410" y="405" width="40" height="30" as="geometry" />
        </mxCell>
        <mxCell id="bZCjvs0xwWL3-SMBSXgl-29" value="05" style="text;html=1;align=center;verticalAlign=middle;resizable=0;points=[];autosize=1;strokeColor=none;fillColor=none;fontSize=11;fontFamily=Helvetica;fontColor=default;" vertex="1" parent="bZCjvs0xwWL3-SMBSXgl-1">
          <mxGeometry x="410" y="475" width="40" height="30" as="geometry" />
        </mxCell>
        <mxCell id="bZCjvs0xwWL3-SMBSXgl-30" value="06" style="text;html=1;align=center;verticalAlign=middle;resizable=0;points=[];autosize=1;strokeColor=none;fillColor=none;fontSize=11;fontFamily=Helvetica;fontColor=default;" vertex="1" parent="bZCjvs0xwWL3-SMBSXgl-1">
          <mxGeometry x="410" y="520" width="40" height="30" as="geometry" />
        </mxCell>
        <mxCell id="bZCjvs0xwWL3-SMBSXgl-31" value="07" style="text;html=1;align=center;verticalAlign=middle;resizable=0;points=[];autosize=1;strokeColor=none;fillColor=none;fontSize=11;fontFamily=Helvetica;fontColor=default;" vertex="1" parent="bZCjvs0xwWL3-SMBSXgl-1">
          <mxGeometry x="410" y="570" width="40" height="30" as="geometry" />
        </mxCell>
        <mxCell id="bZCjvs0xwWL3-SMBSXgl-32" value="10" style="text;html=1;align=center;verticalAlign=middle;resizable=0;points=[];autosize=1;strokeColor=none;fillColor=none;fontSize=11;fontFamily=Helvetica;fontColor=default;" vertex="1" parent="bZCjvs0xwWL3-SMBSXgl-1">
          <mxGeometry x="760" y="405" width="40" height="30" as="geometry" />
        </mxCell>
        <mxCell id="bZCjvs0xwWL3-SMBSXgl-33" value="11" style="text;html=1;align=center;verticalAlign=middle;resizable=0;points=[];autosize=1;strokeColor=none;fillColor=none;fontSize=11;fontFamily=Helvetica;fontColor=default;" vertex="1" parent="bZCjvs0xwWL3-SMBSXgl-1">
          <mxGeometry x="765" y="455" width="30" height="30" as="geometry" />
        </mxCell>
        <mxCell id="1EPwTFQmy3J8QYS-fjx8-1" value="ALM DIGIT" style="rounded=0;whiteSpace=wrap;html=1;" vertex="1" parent="bZCjvs0xwWL3-SMBSXgl-1">
          <mxGeometry x="470" y="250" width="120" height="30" as="geometry" />
        </mxCell>
        <mxCell id="1EPwTFQmy3J8QYS-fjx8-4" value="" style="edgeStyle=orthogonalEdgeStyle;rounded=0;orthogonalLoop=1;jettySize=auto;html=1;endArrow=none;endFill=0;" edge="1" parent="bZCjvs0xwWL3-SMBSXgl-1" source="1EPwTFQmy3J8QYS-fjx8-10" target="bZCjvs0xwWL3-SMBSXgl-19">
          <mxGeometry relative="1" as="geometry">
            <mxPoint x="530" y="620" as="sourcePoint" />
            <mxPoint x="530" y="410" as="targetPoint" />
          </mxGeometry>
        </mxCell>
        <mxCell id="1EPwTFQmy3J8QYS-fjx8-17" style="edgeStyle=orthogonalEdgeStyle;shape=connector;rounded=0;orthogonalLoop=1;jettySize=auto;html=1;entryX=0;entryY=0.5;entryDx=0;entryDy=0;labelBackgroundColor=default;strokeColor=default;fontFamily=Helvetica;fontSize=11;fontColor=default;endArrow=none;endFill=0;" edge="1" parent="bZCjvs0xwWL3-SMBSXgl-1" source="bZCjvs0xwWL3-SMBSXgl-19" target="bZCjvs0xwWL3-SMBSXgl-21">
          <mxGeometry relative="1" as="geometry" />
        </mxCell>
        <mxCell id="bZCjvs0xwWL3-SMBSXgl-19" value="JZ" style="rhombus;whiteSpace=wrap;html=1;fontFamily=Helvetica;fontSize=11;fontColor=default;" vertex="1" parent="bZCjvs0xwWL3-SMBSXgl-1">
          <mxGeometry x="490" y="380" width="80" height="80" as="geometry" />
        </mxCell>
        <mxCell id="1EPwTFQmy3J8QYS-fjx8-5" value="CAR DIGIT" style="rounded=0;whiteSpace=wrap;html=1;" vertex="1" parent="bZCjvs0xwWL3-SMBSXgl-1">
          <mxGeometry x="470" y="475" width="120" height="30" as="geometry" />
        </mxCell>
        <mxCell id="bZCjvs0xwWL3-SMBSXgl-23" value="ESA 6000" style="shape=trapezoid;perimeter=trapezoidPerimeter;whiteSpace=wrap;html=1;fixedSize=1;fontFamily=Helvetica;fontSize=11;fontColor=default;" vertex="1" parent="bZCjvs0xwWL3-SMBSXgl-1">
          <mxGeometry x="470" y="520" width="120" height="30" as="geometry" />
        </mxCell>
        <mxCell id="1EPwTFQmy3J8QYS-fjx8-6" value="CAN 1" style="rounded=0;whiteSpace=wrap;html=1;" vertex="1" parent="bZCjvs0xwWL3-SMBSXgl-1">
          <mxGeometry x="470" y="570" width="120" height="30" as="geometry" />
        </mxCell>
        <mxCell id="1EPwTFQmy3J8QYS-fjx8-7" value="SUM DIGIT" style="rounded=0;whiteSpace=wrap;html=1;" vertex="1" parent="bZCjvs0xwWL3-SMBSXgl-1">
          <mxGeometry x="470" y="620" width="120" height="30" as="geometry" />
        </mxCell>
        <mxCell id="1EPwTFQmy3J8QYS-fjx8-10" value="JI 01" style="shape=offPageConnector;whiteSpace=wrap;html=1;fontFamily=Helvetica;fontSize=11;fontColor=default;direction=north;size=0.2857142857142857;" vertex="1" parent="bZCjvs0xwWL3-SMBSXgl-1">
          <mxGeometry x="488" y="670" width="85" height="30" as="geometry" />
        </mxCell>
        <mxCell id="1EPwTFQmy3J8QYS-fjx8-13" style="edgeStyle=orthogonalEdgeStyle;shape=connector;rounded=0;orthogonalLoop=1;jettySize=auto;html=1;labelBackgroundColor=default;strokeColor=default;fontFamily=Helvetica;fontSize=11;fontColor=default;endArrow=none;endFill=0;" edge="1" parent="bZCjvs0xwWL3-SMBSXgl-1" source="1EPwTFQmy3J8QYS-fjx8-10">
          <mxGeometry relative="1" as="geometry">
            <mxPoint x="830" y="240" as="targetPoint" />
            <mxPoint x="573" y="685" as="sourcePoint" />
          </mxGeometry>
        </mxCell>
        <mxCell id="1EPwTFQmy3J8QYS-fjx8-14" value="" style="edgeStyle=none;orthogonalLoop=1;jettySize=auto;html=1;rounded=0;labelBackgroundColor=default;strokeColor=default;fontFamily=Helvetica;fontSize=11;fontColor=default;endArrow=none;endFill=0;shape=connector;startArrow=classic;startFill=1;" edge="1" parent="bZCjvs0xwWL3-SMBSXgl-1">
          <mxGeometry width="80" relative="1" as="geometry">
            <mxPoint x="540" y="240" as="sourcePoint" />
            <mxPoint x="830" y="240" as="targetPoint" />
            <Array as="points" />
          </mxGeometry>
        </mxCell>
        <mxCell id="1EPwTFQmy3J8QYS-fjx8-16" value="" style="edgeStyle=orthogonalEdgeStyle;shape=connector;rounded=0;orthogonalLoop=1;jettySize=auto;html=1;labelBackgroundColor=default;strokeColor=default;fontFamily=Helvetica;fontSize=11;fontColor=default;endArrow=none;endFill=0;" edge="1" parent="bZCjvs0xwWL3-SMBSXgl-1" source="bZCjvs0xwWL3-SMBSXgl-21" target="1EPwTFQmy3J8QYS-fjx8-15">
          <mxGeometry relative="1" as="geometry">
            <mxPoint x="675" y="520" as="targetPoint" />
            <mxPoint x="675" y="435" as="sourcePoint" />
          </mxGeometry>
        </mxCell>
        <mxCell id="1EPwTFQmy3J8QYS-fjx8-15" value="ESA 6000" style="shape=trapezoid;perimeter=trapezoidPerimeter;whiteSpace=wrap;html=1;fixedSize=1;fontFamily=Helvetica;fontSize=11;fontColor=default;" vertex="1" parent="bZCjvs0xwWL3-SMBSXgl-1">
          <mxGeometry x="615" y="455" width="120" height="30" as="geometry" />
        </mxCell>
        <mxCell id="1EPwTFQmy3J8QYS-fjx8-18" value="08" style="text;html=1;align=center;verticalAlign=middle;resizable=0;points=[];autosize=1;strokeColor=none;fillColor=none;fontSize=11;fontFamily=Helvetica;fontColor=default;" vertex="1" parent="bZCjvs0xwWL3-SMBSXgl-1">
          <mxGeometry x="410" y="620" width="40" height="30" as="geometry" />
        </mxCell>
        <mxCell id="1EPwTFQmy3J8QYS-fjx8-19" value="09" style="text;html=1;align=center;verticalAlign=middle;resizable=0;points=[];autosize=1;strokeColor=none;fillColor=none;fontSize=11;fontFamily=Helvetica;fontColor=default;" vertex="1" parent="bZCjvs0xwWL3-SMBSXgl-1">
          <mxGeometry x="410" y="670" width="40" height="30" as="geometry" />
        </mxCell>
        <mxCell id="1EPwTFQmy3J8QYS-fjx8-20" value="12" style="text;html=1;align=center;verticalAlign=middle;resizable=0;points=[];autosize=1;strokeColor=none;fillColor=none;fontSize=11;fontFamily=Helvetica;fontColor=default;" vertex="1" parent="bZCjvs0xwWL3-SMBSXgl-1">
          <mxGeometry x="760" y="540" width="40" height="30" as="geometry" />
        </mxCell>
      </root>
    </mxGraphModel>
  </diagram>
  <diagram name="10" id="mpM_Dleq_r7lvLUSOv7v">
    <mxGraphModel grid="1" page="1" gridSize="10" guides="1" tooltips="1" connect="1" arrows="1" fold="1" pageScale="1" pageWidth="1169" pageHeight="1654" math="0" shadow="0">
      <root>
        <mxCell id="jzfcGUyTiBe-EuBvzi3V-0" />
        <mxCell id="jzfcGUyTiBe-EuBvzi3V-1" parent="jzfcGUyTiBe-EuBvzi3V-0" />
        <mxCell id="UtQs_k6-3WdOs0-LvMoD-32" value="" style="edgeStyle=orthogonalEdgeStyle;rounded=0;orthogonalLoop=1;jettySize=auto;html=1;endArrow=none;endFill=0;entryX=0.5;entryY=1;entryDx=0;entryDy=0;" edge="1" parent="jzfcGUyTiBe-EuBvzi3V-1" source="jzfcGUyTiBe-EuBvzi3V-5">
          <mxGeometry relative="1" as="geometry">
            <mxPoint x="530.0000000000005" y="270.0000000000001" as="targetPoint" />
            <mxPoint x="530" y="160" as="sourcePoint" />
          </mxGeometry>
        </mxCell>
        <mxCell id="UtQs_k6-3WdOs0-LvMoD-23" style="edgeStyle=orthogonalEdgeStyle;rounded=0;orthogonalLoop=1;jettySize=auto;html=1;entryX=0.5;entryY=0;entryDx=0;entryDy=0;endArrow=none;endFill=0;" edge="1" parent="jzfcGUyTiBe-EuBvzi3V-1" source="UtQs_k6-3WdOs0-LvMoD-7" target="jzfcGUyTiBe-EuBvzi3V-10">
          <mxGeometry relative="1" as="geometry" />
        </mxCell>
        <mxCell id="UtQs_k6-3WdOs0-LvMoD-22" style="edgeStyle=orthogonalEdgeStyle;rounded=0;orthogonalLoop=1;jettySize=auto;html=1;exitX=0.5;exitY=1;exitDx=0;exitDy=0;endArrow=none;endFill=0;" edge="1" parent="jzfcGUyTiBe-EuBvzi3V-1" source="jzfcGUyTiBe-EuBvzi3V-29" target="jzfcGUyTiBe-EuBvzi3V-34">
          <mxGeometry relative="1" as="geometry" />
        </mxCell>
        <mxCell id="jzfcGUyTiBe-EuBvzi3V-2" value="&lt;h1&gt;Ejercicio 10&lt;/h1&gt;Ingresar X cantidad de números y mostrar el mayor. El fin del ingreso se marca ingresando un número&lt;br/&gt;negativo&lt;span style=&quot;background-color: initial;&quot;&gt;.&lt;/span&gt;" style="text;html=1;strokeColor=none;fillColor=none;spacing=5;spacingTop=-20;whiteSpace=wrap;overflow=hidden;rounded=0;" parent="jzfcGUyTiBe-EuBvzi3V-1" vertex="1">
          <mxGeometry x="10" y="10" width="1070" height="80" as="geometry" />
        </mxCell>
        <mxCell id="jzfcGUyTiBe-EuBvzi3V-3" value="Facundo Masino - SPD - Unidad 5" style="text;html=1;strokeColor=none;fillColor=none;align=center;verticalAlign=middle;whiteSpace=wrap;rounded=0;" parent="jzfcGUyTiBe-EuBvzi3V-1" vertex="1">
          <mxGeometry x="940" y="10" width="210" height="30" as="geometry" />
        </mxCell>
        <mxCell id="jzfcGUyTiBe-EuBvzi3V-4" style="edgeStyle=orthogonalEdgeStyle;rounded=0;orthogonalLoop=1;jettySize=auto;html=1;endArrow=none;endFill=0;entryX=0.5;entryY=1;entryDx=0;entryDy=0;" parent="jzfcGUyTiBe-EuBvzi3V-1" edge="1" target="UtQs_k6-3WdOs0-LvMoD-0">
          <mxGeometry relative="1" as="geometry">
            <mxPoint x="530" y="200" as="targetPoint" />
            <mxPoint x="530" y="300.0000000000001" as="sourcePoint" />
          </mxGeometry>
        </mxCell>
        <mxCell id="jzfcGUyTiBe-EuBvzi3V-5" value="I" style="ellipse;whiteSpace=wrap;html=1;aspect=fixed;" parent="jzfcGUyTiBe-EuBvzi3V-1" vertex="1">
          <mxGeometry x="500" y="100" width="60" height="60" as="geometry" />
        </mxCell>
        <mxCell id="jzfcGUyTiBe-EuBvzi3V-9" value="" style="edgeStyle=orthogonalEdgeStyle;rounded=0;orthogonalLoop=1;jettySize=auto;html=1;endArrow=none;endFill=0;" edge="1" parent="jzfcGUyTiBe-EuBvzi3V-1" source="jzfcGUyTiBe-EuBvzi3V-10">
          <mxGeometry relative="1" as="geometry">
            <mxPoint x="530.5" y="730" as="targetPoint" />
          </mxGeometry>
        </mxCell>
        <mxCell id="jzfcGUyTiBe-EuBvzi3V-10" value="CAR MAYOR" style="rounded=0;whiteSpace=wrap;html=1;" vertex="1" parent="jzfcGUyTiBe-EuBvzi3V-1">
          <mxGeometry x="471" y="600" width="120" height="30" as="geometry" />
        </mxCell>
        <mxCell id="jzfcGUyTiBe-EuBvzi3V-12" value="PAR" style="ellipse;whiteSpace=wrap;html=1;aspect=fixed;" vertex="1" parent="jzfcGUyTiBe-EuBvzi3V-1">
          <mxGeometry x="665" y="570" width="60" height="60" as="geometry" />
        </mxCell>
        <mxCell id="jzfcGUyTiBe-EuBvzi3V-13" value="00" style="text;html=1;align=center;verticalAlign=middle;resizable=0;points=[];autosize=1;strokeColor=none;fillColor=none;fontSize=11;fontFamily=Helvetica;fontColor=default;" parent="jzfcGUyTiBe-EuBvzi3V-1" vertex="1">
          <mxGeometry x="410" y="180" width="40" height="30" as="geometry" />
        </mxCell>
        <mxCell id="jzfcGUyTiBe-EuBvzi3V-14" value="01" style="text;html=1;align=center;verticalAlign=middle;resizable=0;points=[];autosize=1;strokeColor=none;fillColor=none;fontSize=11;fontFamily=Helvetica;fontColor=default;" parent="jzfcGUyTiBe-EuBvzi3V-1" vertex="1">
          <mxGeometry x="410" y="226" width="40" height="30" as="geometry" />
        </mxCell>
        <mxCell id="jzfcGUyTiBe-EuBvzi3V-15" value="02" style="text;html=1;align=center;verticalAlign=middle;resizable=0;points=[];autosize=1;strokeColor=none;fillColor=none;fontSize=11;fontFamily=Helvetica;fontColor=default;" parent="jzfcGUyTiBe-EuBvzi3V-1" vertex="1">
          <mxGeometry x="410" y="270" width="40" height="30" as="geometry" />
        </mxCell>
        <mxCell id="UtQs_k6-3WdOs0-LvMoD-19" style="edgeStyle=orthogonalEdgeStyle;rounded=0;orthogonalLoop=1;jettySize=auto;html=1;exitX=0.5;exitY=1;exitDx=0;exitDy=0;entryX=0.4;entryY=0.471;entryDx=0;entryDy=0;entryPerimeter=0;endArrow=none;endFill=0;" edge="1" parent="jzfcGUyTiBe-EuBvzi3V-1" source="jzfcGUyTiBe-EuBvzi3V-17" target="UtQs_k6-3WdOs0-LvMoD-11">
          <mxGeometry relative="1" as="geometry" />
        </mxCell>
        <mxCell id="jzfcGUyTiBe-EuBvzi3V-17" value="CAR NUM" style="rounded=0;whiteSpace=wrap;html=1;" vertex="1" parent="jzfcGUyTiBe-EuBvzi3V-1">
          <mxGeometry x="635" y="725" width="90" height="30" as="geometry" />
        </mxCell>
        <mxCell id="jzfcGUyTiBe-EuBvzi3V-18" value="RES NUM" style="rounded=0;whiteSpace=wrap;html=1;" vertex="1" parent="jzfcGUyTiBe-EuBvzi3V-1">
          <mxGeometry x="471" y="650" width="120" height="30" as="geometry" />
        </mxCell>
        <mxCell id="jzfcGUyTiBe-EuBvzi3V-19" value="03" style="text;html=1;align=center;verticalAlign=middle;resizable=0;points=[];autosize=1;strokeColor=none;fillColor=none;fontSize=11;fontFamily=Helvetica;fontColor=default;" parent="jzfcGUyTiBe-EuBvzi3V-1" vertex="1">
          <mxGeometry x="410" y="310" width="40" height="30" as="geometry" />
        </mxCell>
        <mxCell id="jzfcGUyTiBe-EuBvzi3V-20" value="04" style="text;html=1;align=center;verticalAlign=middle;resizable=0;points=[];autosize=1;strokeColor=none;fillColor=none;fontSize=11;fontFamily=Helvetica;fontColor=default;" parent="jzfcGUyTiBe-EuBvzi3V-1" vertex="1">
          <mxGeometry x="410" y="355" width="40" height="30" as="geometry" />
        </mxCell>
        <mxCell id="jzfcGUyTiBe-EuBvzi3V-21" value="05" style="text;html=1;align=center;verticalAlign=middle;resizable=0;points=[];autosize=1;strokeColor=none;fillColor=none;fontSize=11;fontFamily=Helvetica;fontColor=default;" parent="jzfcGUyTiBe-EuBvzi3V-1" vertex="1">
          <mxGeometry x="410" y="400" width="40" height="30" as="geometry" />
        </mxCell>
        <mxCell id="jzfcGUyTiBe-EuBvzi3V-22" value="06" style="text;html=1;align=center;verticalAlign=middle;resizable=0;points=[];autosize=1;strokeColor=none;fillColor=none;fontSize=11;fontFamily=Helvetica;fontColor=default;" parent="jzfcGUyTiBe-EuBvzi3V-1" vertex="1">
          <mxGeometry x="410" y="475" width="40" height="30" as="geometry" />
        </mxCell>
        <mxCell id="jzfcGUyTiBe-EuBvzi3V-23" value="07" style="text;html=1;align=center;verticalAlign=middle;resizable=0;points=[];autosize=1;strokeColor=none;fillColor=none;fontSize=11;fontFamily=Helvetica;fontColor=default;" parent="jzfcGUyTiBe-EuBvzi3V-1" vertex="1">
          <mxGeometry x="410" y="550" width="40" height="30" as="geometry" />
        </mxCell>
        <mxCell id="jzfcGUyTiBe-EuBvzi3V-24" value="10" style="text;html=1;align=center;verticalAlign=middle;resizable=0;points=[];autosize=1;strokeColor=none;fillColor=none;fontSize=11;fontFamily=Helvetica;fontColor=default;" vertex="1" parent="jzfcGUyTiBe-EuBvzi3V-1">
          <mxGeometry x="410" y="725" width="40" height="30" as="geometry" />
        </mxCell>
        <mxCell id="jzfcGUyTiBe-EuBvzi3V-25" value="11" style="text;html=1;align=center;verticalAlign=middle;resizable=0;points=[];autosize=1;strokeColor=none;fillColor=none;fontSize=11;fontFamily=Helvetica;fontColor=default;" vertex="1" parent="jzfcGUyTiBe-EuBvzi3V-1">
          <mxGeometry x="415" y="790" width="30" height="30" as="geometry" />
        </mxCell>
        <mxCell id="jzfcGUyTiBe-EuBvzi3V-26" value="ALM NUM" style="rounded=0;whiteSpace=wrap;html=1;" parent="jzfcGUyTiBe-EuBvzi3V-1" vertex="1">
          <mxGeometry x="470.5" y="550" width="120" height="30" as="geometry" />
        </mxCell>
        <mxCell id="jzfcGUyTiBe-EuBvzi3V-28" style="edgeStyle=orthogonalEdgeStyle;shape=connector;rounded=0;orthogonalLoop=1;jettySize=auto;html=1;entryX=0;entryY=0.5;entryDx=0;entryDy=0;labelBackgroundColor=default;strokeColor=default;fontFamily=Helvetica;fontSize=11;fontColor=default;endArrow=none;endFill=0;" edge="1" parent="jzfcGUyTiBe-EuBvzi3V-1" source="jzfcGUyTiBe-EuBvzi3V-29" target="jzfcGUyTiBe-EuBvzi3V-17">
          <mxGeometry relative="1" as="geometry" />
        </mxCell>
        <mxCell id="UtQs_k6-3WdOs0-LvMoD-17" style="edgeStyle=orthogonalEdgeStyle;rounded=0;orthogonalLoop=1;jettySize=auto;html=1;exitX=0.5;exitY=1;exitDx=0;exitDy=0;endArrow=none;endFill=0;" edge="1" parent="jzfcGUyTiBe-EuBvzi3V-1" source="jzfcGUyTiBe-EuBvzi3V-30" target="jzfcGUyTiBe-EuBvzi3V-12">
          <mxGeometry relative="1" as="geometry" />
        </mxCell>
        <mxCell id="jzfcGUyTiBe-EuBvzi3V-30" value="CAR MAYOR" style="rounded=0;whiteSpace=wrap;html=1;" parent="jzfcGUyTiBe-EuBvzi3V-1" vertex="1">
          <mxGeometry x="635" y="467" width="120" height="30" as="geometry" />
        </mxCell>
        <mxCell id="jzfcGUyTiBe-EuBvzi3V-31" value="ESA 6000" style="shape=trapezoid;perimeter=trapezoidPerimeter;whiteSpace=wrap;html=1;fixedSize=1;fontFamily=Helvetica;fontSize=11;fontColor=default;" vertex="1" parent="jzfcGUyTiBe-EuBvzi3V-1">
          <mxGeometry x="635" y="515" width="120" height="30" as="geometry" />
        </mxCell>
        <mxCell id="UtQs_k6-3WdOs0-LvMoD-21" style="edgeStyle=orthogonalEdgeStyle;rounded=0;orthogonalLoop=1;jettySize=auto;html=1;" edge="1" parent="jzfcGUyTiBe-EuBvzi3V-1" source="jzfcGUyTiBe-EuBvzi3V-34">
          <mxGeometry relative="1" as="geometry">
            <mxPoint x="800" y="805" as="targetPoint" />
          </mxGeometry>
        </mxCell>
        <mxCell id="jzfcGUyTiBe-EuBvzi3V-34" value="JI 04" style="shape=offPageConnector;whiteSpace=wrap;html=1;fontFamily=Helvetica;fontSize=11;fontColor=default;direction=north;size=0.3058823529411765;" vertex="1" parent="jzfcGUyTiBe-EuBvzi3V-1">
          <mxGeometry x="491" y="790" width="85" height="30" as="geometry" />
        </mxCell>
        <mxCell id="jzfcGUyTiBe-EuBvzi3V-39" value="08" style="text;html=1;align=center;verticalAlign=middle;resizable=0;points=[];autosize=1;strokeColor=none;fillColor=none;fontSize=11;fontFamily=Helvetica;fontColor=default;" parent="jzfcGUyTiBe-EuBvzi3V-1" vertex="1">
          <mxGeometry x="410" y="600" width="40" height="30" as="geometry" />
        </mxCell>
        <mxCell id="jzfcGUyTiBe-EuBvzi3V-40" value="09" style="text;html=1;align=center;verticalAlign=middle;resizable=0;points=[];autosize=1;strokeColor=none;fillColor=none;fontSize=11;fontFamily=Helvetica;fontColor=default;" parent="jzfcGUyTiBe-EuBvzi3V-1" vertex="1">
          <mxGeometry x="410" y="650" width="40" height="30" as="geometry" />
        </mxCell>
        <mxCell id="jzfcGUyTiBe-EuBvzi3V-41" value="12" style="text;html=1;align=center;verticalAlign=middle;resizable=0;points=[];autosize=1;strokeColor=none;fillColor=none;fontSize=11;fontFamily=Helvetica;fontColor=default;" parent="jzfcGUyTiBe-EuBvzi3V-1" vertex="1">
          <mxGeometry x="810" y="467" width="40" height="30" as="geometry" />
        </mxCell>
        <mxCell id="UtQs_k6-3WdOs0-LvMoD-1" value="CAN 0" style="rounded=0;whiteSpace=wrap;html=1;" vertex="1" parent="jzfcGUyTiBe-EuBvzi3V-1">
          <mxGeometry x="470.5" y="180" width="120" height="30" as="geometry" />
        </mxCell>
        <mxCell id="UtQs_k6-3WdOs0-LvMoD-2" value="ALM MAYOR" style="rounded=0;whiteSpace=wrap;html=1;" vertex="1" parent="jzfcGUyTiBe-EuBvzi3V-1">
          <mxGeometry x="470" y="226" width="120" height="30" as="geometry" />
        </mxCell>
        <mxCell id="UtQs_k6-3WdOs0-LvMoD-3" value="CAN 0" style="rounded=0;whiteSpace=wrap;html=1;" vertex="1" parent="jzfcGUyTiBe-EuBvzi3V-1">
          <mxGeometry x="470" y="270" width="120" height="30" as="geometry" />
        </mxCell>
        <mxCell id="UtQs_k6-3WdOs0-LvMoD-4" value="ALM CERO" style="rounded=0;whiteSpace=wrap;html=1;" vertex="1" parent="jzfcGUyTiBe-EuBvzi3V-1">
          <mxGeometry x="470.5" y="310" width="120" height="30" as="geometry" />
        </mxCell>
        <mxCell id="UtQs_k6-3WdOs0-LvMoD-0" value="LEA 3000" style="shape=trapezoid;perimeter=trapezoidPerimeter;whiteSpace=wrap;html=1;fixedSize=1;fontFamily=Helvetica;fontSize=11;fontColor=default;direction=west;" vertex="1" parent="jzfcGUyTiBe-EuBvzi3V-1">
          <mxGeometry x="470.5000000000002" y="355.0000000000001" width="120" height="30" as="geometry" />
        </mxCell>
        <mxCell id="UtQs_k6-3WdOs0-LvMoD-8" value="" style="edgeStyle=orthogonalEdgeStyle;rounded=0;orthogonalLoop=1;jettySize=auto;html=1;endArrow=none;endFill=0;exitX=0.5;exitY=0;exitDx=0;exitDy=0;" edge="1" parent="jzfcGUyTiBe-EuBvzi3V-1" source="UtQs_k6-3WdOs0-LvMoD-0" target="UtQs_k6-3WdOs0-LvMoD-7">
          <mxGeometry relative="1" as="geometry">
            <mxPoint x="530.5" y="490" as="targetPoint" />
            <mxPoint x="531" y="385" as="sourcePoint" />
          </mxGeometry>
        </mxCell>
        <mxCell id="UtQs_k6-3WdOs0-LvMoD-6" value="RES CERO" style="rounded=0;whiteSpace=wrap;html=1;" vertex="1" parent="jzfcGUyTiBe-EuBvzi3V-1">
          <mxGeometry x="471" y="400" width="120" height="30" as="geometry" />
        </mxCell>
        <mxCell id="UtQs_k6-3WdOs0-LvMoD-16" style="edgeStyle=orthogonalEdgeStyle;rounded=0;orthogonalLoop=1;jettySize=auto;html=1;entryX=0;entryY=0.75;entryDx=0;entryDy=0;endArrow=none;endFill=0;" edge="1" parent="jzfcGUyTiBe-EuBvzi3V-1" source="UtQs_k6-3WdOs0-LvMoD-7" target="jzfcGUyTiBe-EuBvzi3V-30">
          <mxGeometry relative="1" as="geometry" />
        </mxCell>
        <mxCell id="UtQs_k6-3WdOs0-LvMoD-7" value="JN" style="rhombus;whiteSpace=wrap;html=1;fontFamily=Helvetica;fontSize=11;fontColor=default;" vertex="1" parent="jzfcGUyTiBe-EuBvzi3V-1">
          <mxGeometry x="491" y="450" width="80" height="80" as="geometry" />
        </mxCell>
        <mxCell id="UtQs_k6-3WdOs0-LvMoD-9" value="" style="edgeStyle=orthogonalEdgeStyle;rounded=0;orthogonalLoop=1;jettySize=auto;html=1;endArrow=none;endFill=0;" edge="1" parent="jzfcGUyTiBe-EuBvzi3V-1" target="jzfcGUyTiBe-EuBvzi3V-29">
          <mxGeometry relative="1" as="geometry">
            <mxPoint x="530.5" y="760" as="targetPoint" />
            <mxPoint x="531" y="730" as="sourcePoint" />
          </mxGeometry>
        </mxCell>
        <mxCell id="jzfcGUyTiBe-EuBvzi3V-29" value="JN" style="rhombus;whiteSpace=wrap;html=1;fontFamily=Helvetica;fontSize=11;fontColor=default;" vertex="1" parent="jzfcGUyTiBe-EuBvzi3V-1">
          <mxGeometry x="490.5" y="700" width="80" height="80" as="geometry" />
        </mxCell>
        <mxCell id="UtQs_k6-3WdOs0-LvMoD-10" value="ALM MAYOR" style="rounded=0;whiteSpace=wrap;html=1;" vertex="1" parent="jzfcGUyTiBe-EuBvzi3V-1">
          <mxGeometry x="635" y="767" width="90" height="30" as="geometry" />
        </mxCell>
        <mxCell id="UtQs_k6-3WdOs0-LvMoD-20" style="edgeStyle=orthogonalEdgeStyle;rounded=0;orthogonalLoop=1;jettySize=auto;html=1;endArrow=none;endFill=0;" edge="1" parent="jzfcGUyTiBe-EuBvzi3V-1" source="UtQs_k6-3WdOs0-LvMoD-11">
          <mxGeometry relative="1" as="geometry">
            <mxPoint x="770" y="350" as="targetPoint" />
            <Array as="points">
              <mxPoint x="800" y="827" />
            </Array>
          </mxGeometry>
        </mxCell>
        <mxCell id="UtQs_k6-3WdOs0-LvMoD-11" value="JI 04" style="shape=offPageConnector;whiteSpace=wrap;html=1;fontFamily=Helvetica;fontSize=11;fontColor=default;direction=north;size=0.2857142857142857;" vertex="1" parent="jzfcGUyTiBe-EuBvzi3V-1">
          <mxGeometry x="640" y="812" width="85" height="30" as="geometry" />
        </mxCell>
        <mxCell id="UtQs_k6-3WdOs0-LvMoD-18" style="edgeStyle=orthogonalEdgeStyle;rounded=0;orthogonalLoop=1;jettySize=auto;html=1;endArrow=none;endFill=0;startArrow=classic;startFill=1;" edge="1" parent="jzfcGUyTiBe-EuBvzi3V-1">
          <mxGeometry relative="1" as="geometry">
            <mxPoint x="790" y="350" as="targetPoint" />
            <mxPoint x="540" y="350" as="sourcePoint" />
            <Array as="points">
              <mxPoint x="770" y="350" />
            </Array>
          </mxGeometry>
        </mxCell>
        <mxCell id="UtQs_k6-3WdOs0-LvMoD-24" value="13" style="text;html=1;align=center;verticalAlign=middle;resizable=0;points=[];autosize=1;strokeColor=none;fillColor=none;fontSize=11;fontFamily=Helvetica;fontColor=default;" vertex="1" parent="jzfcGUyTiBe-EuBvzi3V-1">
          <mxGeometry x="810" y="515" width="40" height="30" as="geometry" />
        </mxCell>
        <mxCell id="UtQs_k6-3WdOs0-LvMoD-25" value="14" style="text;html=1;align=center;verticalAlign=middle;resizable=0;points=[];autosize=1;strokeColor=none;fillColor=none;fontSize=11;fontFamily=Helvetica;fontColor=default;" vertex="1" parent="jzfcGUyTiBe-EuBvzi3V-1">
          <mxGeometry x="810" y="580" width="40" height="30" as="geometry" />
        </mxCell>
        <mxCell id="UtQs_k6-3WdOs0-LvMoD-26" value="15" style="text;html=1;align=center;verticalAlign=middle;resizable=0;points=[];autosize=1;strokeColor=none;fillColor=none;fontSize=11;fontFamily=Helvetica;fontColor=default;" vertex="1" parent="jzfcGUyTiBe-EuBvzi3V-1">
          <mxGeometry x="820" y="725" width="40" height="30" as="geometry" />
        </mxCell>
        <mxCell id="UtQs_k6-3WdOs0-LvMoD-27" value="16" style="text;html=1;align=center;verticalAlign=middle;resizable=0;points=[];autosize=1;strokeColor=none;fillColor=none;fontSize=11;fontFamily=Helvetica;fontColor=default;" vertex="1" parent="jzfcGUyTiBe-EuBvzi3V-1">
          <mxGeometry x="820" y="760" width="40" height="30" as="geometry" />
        </mxCell>
        <mxCell id="UtQs_k6-3WdOs0-LvMoD-28" value="17" style="text;html=1;align=center;verticalAlign=middle;resizable=0;points=[];autosize=1;strokeColor=none;fillColor=none;fontSize=11;fontFamily=Helvetica;fontColor=default;" vertex="1" parent="jzfcGUyTiBe-EuBvzi3V-1">
          <mxGeometry x="820" y="812" width="40" height="30" as="geometry" />
        </mxCell>
      </root>
    </mxGraphModel>
  </diagram>
  <diagram name="E11" id="OUcEQ4EPnGOrf7Re_lGO">
    <mxGraphModel grid="1" page="1" gridSize="10" guides="1" tooltips="1" connect="1" arrows="1" fold="1" pageScale="1" pageWidth="1169" pageHeight="1654" math="0" shadow="0">
      <root>
        <mxCell id="VYYFspvlOdkBNN0ZG43--0" />
        <mxCell id="VYYFspvlOdkBNN0ZG43--1" parent="VYYFspvlOdkBNN0ZG43--0" />
        <mxCell id="VYYFspvlOdkBNN0ZG43--5" value="&lt;h1&gt;Ejercicio 11&lt;/h1&gt;Ingresar un número entero positivo, validar esta condición. Si es válida mostrar un 1 (uno), en&lt;br/&gt;caso contrario mostrar un 0 (Cero)&lt;span style=&quot;background-color: initial;&quot;&gt;.&lt;/span&gt;" style="text;html=1;strokeColor=none;fillColor=none;spacing=5;spacingTop=-20;whiteSpace=wrap;overflow=hidden;rounded=0;" parent="VYYFspvlOdkBNN0ZG43--1" vertex="1">
          <mxGeometry x="10" y="10" width="1070" height="80" as="geometry" />
        </mxCell>
        <mxCell id="VYYFspvlOdkBNN0ZG43--6" value="Facundo Masino - SPD - Unidad 5" style="text;html=1;strokeColor=none;fillColor=none;align=center;verticalAlign=middle;whiteSpace=wrap;rounded=0;" parent="VYYFspvlOdkBNN0ZG43--1" vertex="1">
          <mxGeometry x="940" y="10" width="210" height="30" as="geometry" />
        </mxCell>
        <mxCell id="ciNOs6hRNUBCYMc6g_jQ-0" style="edgeStyle=orthogonalEdgeStyle;rounded=0;orthogonalLoop=1;jettySize=auto;html=1;exitX=0.5;exitY=1;exitDx=0;exitDy=0;endArrow=none;endFill=0;" edge="1" parent="VYYFspvlOdkBNN0ZG43--1" source="ciNOs6hRNUBCYMc6g_jQ-21" target="ciNOs6hRNUBCYMc6g_jQ-25">
          <mxGeometry relative="1" as="geometry" />
        </mxCell>
        <mxCell id="ciNOs6hRNUBCYMc6g_jQ-1" value="" style="edgeStyle=orthogonalEdgeStyle;rounded=0;orthogonalLoop=1;jettySize=auto;html=1;endArrow=none;endFill=0;entryX=0.5;entryY=1;entryDx=0;entryDy=0;" edge="1" parent="VYYFspvlOdkBNN0ZG43--1" source="ciNOs6hRNUBCYMc6g_jQ-3" target="ciNOs6hRNUBCYMc6g_jQ-22">
          <mxGeometry relative="1" as="geometry">
            <mxPoint x="531" y="375" as="targetPoint" />
            <mxPoint x="530" y="180" as="sourcePoint" />
          </mxGeometry>
        </mxCell>
        <mxCell id="ciNOs6hRNUBCYMc6g_jQ-2" style="edgeStyle=orthogonalEdgeStyle;rounded=0;orthogonalLoop=1;jettySize=auto;html=1;endArrow=none;endFill=0;entryX=0.5;entryY=1;entryDx=0;entryDy=0;" edge="1" parent="VYYFspvlOdkBNN0ZG43--1" source="ciNOs6hRNUBCYMc6g_jQ-22">
          <mxGeometry relative="1" as="geometry">
            <mxPoint x="530.5" y="375" as="targetPoint" />
          </mxGeometry>
        </mxCell>
        <mxCell id="ciNOs6hRNUBCYMc6g_jQ-3" value="I" style="ellipse;whiteSpace=wrap;html=1;aspect=fixed;" vertex="1" parent="VYYFspvlOdkBNN0ZG43--1">
          <mxGeometry x="500" y="120" width="60" height="60" as="geometry" />
        </mxCell>
        <mxCell id="ciNOs6hRNUBCYMc6g_jQ-4" value="00" style="text;html=1;align=center;verticalAlign=middle;resizable=0;points=[];autosize=1;strokeColor=none;fillColor=none;fontSize=11;fontFamily=Helvetica;fontColor=default;" vertex="1" parent="VYYFspvlOdkBNN0ZG43--1">
          <mxGeometry x="410" y="200" width="40" height="30" as="geometry" />
        </mxCell>
        <mxCell id="ciNOs6hRNUBCYMc6g_jQ-5" value="01" style="text;html=1;align=center;verticalAlign=middle;resizable=0;points=[];autosize=1;strokeColor=none;fillColor=none;fontSize=11;fontFamily=Helvetica;fontColor=default;" vertex="1" parent="VYYFspvlOdkBNN0ZG43--1">
          <mxGeometry x="410" y="246" width="40" height="30" as="geometry" />
        </mxCell>
        <mxCell id="ciNOs6hRNUBCYMc6g_jQ-6" value="02" style="text;html=1;align=center;verticalAlign=middle;resizable=0;points=[];autosize=1;strokeColor=none;fillColor=none;fontSize=11;fontFamily=Helvetica;fontColor=default;" vertex="1" parent="VYYFspvlOdkBNN0ZG43--1">
          <mxGeometry x="410" y="290" width="40" height="30" as="geometry" />
        </mxCell>
        <mxCell id="ciNOs6hRNUBCYMc6g_jQ-7" value="03" style="text;html=1;align=center;verticalAlign=middle;resizable=0;points=[];autosize=1;strokeColor=none;fillColor=none;fontSize=11;fontFamily=Helvetica;fontColor=default;" vertex="1" parent="VYYFspvlOdkBNN0ZG43--1">
          <mxGeometry x="410" y="330" width="40" height="30" as="geometry" />
        </mxCell>
        <mxCell id="ciNOs6hRNUBCYMc6g_jQ-8" value="04" style="text;html=1;align=center;verticalAlign=middle;resizable=0;points=[];autosize=1;strokeColor=none;fillColor=none;fontSize=11;fontFamily=Helvetica;fontColor=default;" vertex="1" parent="VYYFspvlOdkBNN0ZG43--1">
          <mxGeometry x="410" y="395" width="40" height="30" as="geometry" />
        </mxCell>
        <mxCell id="ciNOs6hRNUBCYMc6g_jQ-9" value="05" style="text;html=1;align=center;verticalAlign=middle;resizable=0;points=[];autosize=1;strokeColor=none;fillColor=none;fontSize=11;fontFamily=Helvetica;fontColor=default;" vertex="1" parent="VYYFspvlOdkBNN0ZG43--1">
          <mxGeometry x="410" y="462" width="40" height="30" as="geometry" />
        </mxCell>
        <mxCell id="ciNOs6hRNUBCYMc6g_jQ-10" value="06" style="text;html=1;align=center;verticalAlign=middle;resizable=0;points=[];autosize=1;strokeColor=none;fillColor=none;fontSize=11;fontFamily=Helvetica;fontColor=default;" vertex="1" parent="VYYFspvlOdkBNN0ZG43--1">
          <mxGeometry x="410" y="512" width="40" height="30" as="geometry" />
        </mxCell>
        <mxCell id="ciNOs6hRNUBCYMc6g_jQ-11" value="07" style="text;html=1;align=center;verticalAlign=middle;resizable=0;points=[];autosize=1;strokeColor=none;fillColor=none;fontSize=11;fontFamily=Helvetica;fontColor=default;" vertex="1" parent="VYYFspvlOdkBNN0ZG43--1">
          <mxGeometry x="410" y="570" width="40" height="30" as="geometry" />
        </mxCell>
        <mxCell id="ciNOs6hRNUBCYMc6g_jQ-12" value="CAR UNO" style="rounded=0;whiteSpace=wrap;html=1;" vertex="1" parent="VYYFspvlOdkBNN0ZG43--1">
          <mxGeometry x="470.5" y="462" width="120" height="30" as="geometry" />
        </mxCell>
        <mxCell id="ciNOs6hRNUBCYMc6g_jQ-13" style="edgeStyle=orthogonalEdgeStyle;rounded=0;orthogonalLoop=1;jettySize=auto;html=1;entryX=1;entryY=0.5;entryDx=0;entryDy=0;endArrow=none;endFill=0;" edge="1" parent="VYYFspvlOdkBNN0ZG43--1" source="ciNOs6hRNUBCYMc6g_jQ-14" target="ciNOs6hRNUBCYMc6g_jQ-24">
          <mxGeometry relative="1" as="geometry" />
        </mxCell>
        <mxCell id="ciNOs6hRNUBCYMc6g_jQ-14" value="CAN -1" style="rounded=0;whiteSpace=wrap;html=1;" vertex="1" parent="VYYFspvlOdkBNN0ZG43--1">
          <mxGeometry x="630" y="388" width="120" height="30" as="geometry" />
        </mxCell>
        <mxCell id="ciNOs6hRNUBCYMc6g_jQ-15" value="08" style="text;html=1;align=center;verticalAlign=middle;resizable=0;points=[];autosize=1;strokeColor=none;fillColor=none;fontSize=11;fontFamily=Helvetica;fontColor=default;" vertex="1" parent="VYYFspvlOdkBNN0ZG43--1">
          <mxGeometry x="780" y="388" width="40" height="30" as="geometry" />
        </mxCell>
        <mxCell id="ciNOs6hRNUBCYMc6g_jQ-16" value="09" style="text;html=1;align=center;verticalAlign=middle;resizable=0;points=[];autosize=1;strokeColor=none;fillColor=none;fontSize=11;fontFamily=Helvetica;fontColor=default;" vertex="1" parent="VYYFspvlOdkBNN0ZG43--1">
          <mxGeometry x="780" y="450" width="40" height="30" as="geometry" />
        </mxCell>
        <mxCell id="ciNOs6hRNUBCYMc6g_jQ-17" value="CAN 1" style="rounded=0;whiteSpace=wrap;html=1;" vertex="1" parent="VYYFspvlOdkBNN0ZG43--1">
          <mxGeometry x="470.5" y="200" width="120" height="30" as="geometry" />
        </mxCell>
        <mxCell id="ciNOs6hRNUBCYMc6g_jQ-18" value="ALM UNO" style="rounded=0;whiteSpace=wrap;html=1;" vertex="1" parent="VYYFspvlOdkBNN0ZG43--1">
          <mxGeometry x="470" y="246" width="120" height="30" as="geometry" />
        </mxCell>
        <mxCell id="ciNOs6hRNUBCYMc6g_jQ-19" value="MUL UNO" style="rounded=0;whiteSpace=wrap;html=1;" vertex="1" parent="VYYFspvlOdkBNN0ZG43--1">
          <mxGeometry x="470.5" y="330" width="120" height="30" as="geometry" />
        </mxCell>
        <mxCell id="ciNOs6hRNUBCYMc6g_jQ-20" style="edgeStyle=orthogonalEdgeStyle;rounded=0;orthogonalLoop=1;jettySize=auto;html=1;entryX=0;entryY=0.75;entryDx=0;entryDy=0;endArrow=none;endFill=0;" edge="1" parent="VYYFspvlOdkBNN0ZG43--1" source="ciNOs6hRNUBCYMc6g_jQ-21" target="ciNOs6hRNUBCYMc6g_jQ-14">
          <mxGeometry relative="1" as="geometry" />
        </mxCell>
        <mxCell id="ciNOs6hRNUBCYMc6g_jQ-21" value="JN" style="rhombus;whiteSpace=wrap;html=1;fontFamily=Helvetica;fontSize=11;fontColor=default;" vertex="1" parent="VYYFspvlOdkBNN0ZG43--1">
          <mxGeometry x="490" y="370" width="80" height="80" as="geometry" />
        </mxCell>
        <mxCell id="ciNOs6hRNUBCYMc6g_jQ-22" value="LEA 3000" style="shape=trapezoid;perimeter=trapezoidPerimeter;whiteSpace=wrap;html=1;fixedSize=1;fontFamily=Helvetica;fontSize=11;fontColor=default;direction=west;" vertex="1" parent="VYYFspvlOdkBNN0ZG43--1">
          <mxGeometry x="470.0000000000002" y="290.0000000000001" width="120" height="30" as="geometry" />
        </mxCell>
        <mxCell id="ciNOs6hRNUBCYMc6g_jQ-23" style="edgeStyle=orthogonalEdgeStyle;rounded=0;orthogonalLoop=1;jettySize=auto;html=1;endArrow=classic;endFill=1;" edge="1" parent="VYYFspvlOdkBNN0ZG43--1" source="ciNOs6hRNUBCYMc6g_jQ-24">
          <mxGeometry relative="1" as="geometry">
            <mxPoint x="540" y="500" as="targetPoint" />
            <Array as="points">
              <mxPoint x="750" y="500" />
            </Array>
          </mxGeometry>
        </mxCell>
        <mxCell id="ciNOs6hRNUBCYMc6g_jQ-24" value="JI 06" style="shape=offPageConnector;whiteSpace=wrap;html=1;fontFamily=Helvetica;fontSize=11;fontColor=default;direction=north;size=0.3058823529411765;" vertex="1" parent="VYYFspvlOdkBNN0ZG43--1">
          <mxGeometry x="647.5" y="450" width="85" height="30" as="geometry" />
        </mxCell>
        <mxCell id="ciNOs6hRNUBCYMc6g_jQ-25" value="PAR" style="ellipse;whiteSpace=wrap;html=1;aspect=fixed;" vertex="1" parent="VYYFspvlOdkBNN0ZG43--1">
          <mxGeometry x="505" y="560" width="50" height="50" as="geometry" />
        </mxCell>
        <mxCell id="ciNOs6hRNUBCYMc6g_jQ-26" value="ESA 6000" style="shape=trapezoid;perimeter=trapezoidPerimeter;whiteSpace=wrap;html=1;fixedSize=1;fontFamily=Helvetica;fontSize=11;fontColor=default;" vertex="1" parent="VYYFspvlOdkBNN0ZG43--1">
          <mxGeometry x="470.5" y="512" width="120" height="30" as="geometry" />
        </mxCell>
      </root>
    </mxGraphModel>
  </diagram>
  <diagram name="E12" id="QyFu1QFJSV28CnQK05o-">
    <mxGraphModel grid="1" page="1" gridSize="10" guides="1" tooltips="1" connect="1" arrows="1" fold="1" pageScale="1" pageWidth="1169" pageHeight="1654" math="0" shadow="0">
      <root>
        <mxCell id="EwiAGtasDxcdIfSlzTFl-0" />
        <mxCell id="EwiAGtasDxcdIfSlzTFl-1" parent="EwiAGtasDxcdIfSlzTFl-0" />
        <mxCell id="EwiAGtasDxcdIfSlzTFl-2" value="&lt;h1&gt;Ejercicio 12&lt;/h1&gt;Ingresar un número entero positivo, validarlo, si es par mostrar un 0 (cero) si es impar mostrar&lt;br/&gt;un 1 (uno), y si no valida mostrar un -1 (menos uno)." style="text;html=1;strokeColor=none;fillColor=none;spacing=5;spacingTop=-20;whiteSpace=wrap;overflow=hidden;rounded=0;" vertex="1" parent="EwiAGtasDxcdIfSlzTFl-1">
          <mxGeometry x="10" y="10" width="1070" height="80" as="geometry" />
        </mxCell>
        <mxCell id="EwiAGtasDxcdIfSlzTFl-3" value="Facundo Masino - SPD - Unidad 5" style="text;html=1;strokeColor=none;fillColor=none;align=center;verticalAlign=middle;whiteSpace=wrap;rounded=0;" vertex="1" parent="EwiAGtasDxcdIfSlzTFl-1">
          <mxGeometry x="940" y="10" width="210" height="30" as="geometry" />
        </mxCell>
        <mxCell id="EwiAGtasDxcdIfSlzTFl-4" style="edgeStyle=orthogonalEdgeStyle;rounded=0;orthogonalLoop=1;jettySize=auto;html=1;exitX=0.5;exitY=1;exitDx=0;exitDy=0;endArrow=none;endFill=0;" edge="1" parent="EwiAGtasDxcdIfSlzTFl-1" source="EwiAGtasDxcdIfSlzTFl-25" target="EwiAGtasDxcdIfSlzTFl-29">
          <mxGeometry relative="1" as="geometry" />
        </mxCell>
        <mxCell id="EwiAGtasDxcdIfSlzTFl-5" value="" style="edgeStyle=orthogonalEdgeStyle;rounded=0;orthogonalLoop=1;jettySize=auto;html=1;endArrow=none;endFill=0;entryX=0.5;entryY=1;entryDx=0;entryDy=0;" edge="1" parent="EwiAGtasDxcdIfSlzTFl-1" source="EwiAGtasDxcdIfSlzTFl-7" target="EwiAGtasDxcdIfSlzTFl-26">
          <mxGeometry relative="1" as="geometry">
            <mxPoint x="531" y="375" as="targetPoint" />
            <mxPoint x="530" y="180" as="sourcePoint" />
          </mxGeometry>
        </mxCell>
        <mxCell id="EwiAGtasDxcdIfSlzTFl-6" style="edgeStyle=orthogonalEdgeStyle;rounded=0;orthogonalLoop=1;jettySize=auto;html=1;endArrow=none;endFill=0;entryX=0.5;entryY=1;entryDx=0;entryDy=0;" edge="1" parent="EwiAGtasDxcdIfSlzTFl-1" source="EwiAGtasDxcdIfSlzTFl-26">
          <mxGeometry relative="1" as="geometry">
            <mxPoint x="530.5" y="439" as="targetPoint" />
          </mxGeometry>
        </mxCell>
        <mxCell id="EwiAGtasDxcdIfSlzTFl-7" value="I" style="ellipse;whiteSpace=wrap;html=1;aspect=fixed;" vertex="1" parent="EwiAGtasDxcdIfSlzTFl-1">
          <mxGeometry x="500" y="120" width="60" height="60" as="geometry" />
        </mxCell>
        <mxCell id="EwiAGtasDxcdIfSlzTFl-8" value="00" style="text;html=1;align=center;verticalAlign=middle;resizable=0;points=[];autosize=1;strokeColor=none;fillColor=none;fontSize=11;fontFamily=Helvetica;fontColor=default;" vertex="1" parent="EwiAGtasDxcdIfSlzTFl-1">
          <mxGeometry x="180" y="200" width="40" height="30" as="geometry" />
        </mxCell>
        <mxCell id="EwiAGtasDxcdIfSlzTFl-9" value="01" style="text;html=1;align=center;verticalAlign=middle;resizable=0;points=[];autosize=1;strokeColor=none;fillColor=none;fontSize=11;fontFamily=Helvetica;fontColor=default;" vertex="1" parent="EwiAGtasDxcdIfSlzTFl-1">
          <mxGeometry x="180" y="280" width="40" height="30" as="geometry" />
        </mxCell>
        <mxCell id="EwiAGtasDxcdIfSlzTFl-10" value="02" style="text;html=1;align=center;verticalAlign=middle;resizable=0;points=[];autosize=1;strokeColor=none;fillColor=none;fontSize=11;fontFamily=Helvetica;fontColor=default;" vertex="1" parent="EwiAGtasDxcdIfSlzTFl-1">
          <mxGeometry x="180" y="324" width="40" height="30" as="geometry" />
        </mxCell>
        <mxCell id="EwiAGtasDxcdIfSlzTFl-11" value="03" style="text;html=1;align=center;verticalAlign=middle;resizable=0;points=[];autosize=1;strokeColor=none;fillColor=none;fontSize=11;fontFamily=Helvetica;fontColor=default;" vertex="1" parent="EwiAGtasDxcdIfSlzTFl-1">
          <mxGeometry x="180" y="364" width="40" height="30" as="geometry" />
        </mxCell>
        <mxCell id="EwiAGtasDxcdIfSlzTFl-12" value="04" style="text;html=1;align=center;verticalAlign=middle;resizable=0;points=[];autosize=1;strokeColor=none;fillColor=none;fontSize=11;fontFamily=Helvetica;fontColor=default;" vertex="1" parent="EwiAGtasDxcdIfSlzTFl-1">
          <mxGeometry x="180" y="429" width="40" height="30" as="geometry" />
        </mxCell>
        <mxCell id="EwiAGtasDxcdIfSlzTFl-13" value="05" style="text;html=1;align=center;verticalAlign=middle;resizable=0;points=[];autosize=1;strokeColor=none;fillColor=none;fontSize=11;fontFamily=Helvetica;fontColor=default;" vertex="1" parent="EwiAGtasDxcdIfSlzTFl-1">
          <mxGeometry x="180" y="496" width="40" height="30" as="geometry" />
        </mxCell>
        <mxCell id="EwiAGtasDxcdIfSlzTFl-14" value="06" style="text;html=1;align=center;verticalAlign=middle;resizable=0;points=[];autosize=1;strokeColor=none;fillColor=none;fontSize=11;fontFamily=Helvetica;fontColor=default;" vertex="1" parent="EwiAGtasDxcdIfSlzTFl-1">
          <mxGeometry x="180" y="546" width="40" height="30" as="geometry" />
        </mxCell>
        <mxCell id="EwiAGtasDxcdIfSlzTFl-15" value="07" style="text;html=1;align=center;verticalAlign=middle;resizable=0;points=[];autosize=1;strokeColor=none;fillColor=none;fontSize=11;fontFamily=Helvetica;fontColor=default;" vertex="1" parent="EwiAGtasDxcdIfSlzTFl-1">
          <mxGeometry x="180" y="604" width="40" height="30" as="geometry" />
        </mxCell>
        <mxCell id="EwiAGtasDxcdIfSlzTFl-16" value="DIV DOS" style="rounded=0;whiteSpace=wrap;html=1;" vertex="1" parent="EwiAGtasDxcdIfSlzTFl-1">
          <mxGeometry x="471.5" y="565" width="120" height="30" as="geometry" />
        </mxCell>
        <mxCell id="EwiAGtasDxcdIfSlzTFl-17" style="edgeStyle=orthogonalEdgeStyle;rounded=0;orthogonalLoop=1;jettySize=auto;html=1;entryX=1;entryY=0.5;entryDx=0;entryDy=0;endArrow=none;endFill=0;" edge="1" parent="EwiAGtasDxcdIfSlzTFl-1" source="EwiAGtasDxcdIfSlzTFl-18" target="EwiAGtasDxcdIfSlzTFl-28">
          <mxGeometry relative="1" as="geometry" />
        </mxCell>
        <mxCell id="EwiAGtasDxcdIfSlzTFl-18" value="CAN -1" style="rounded=0;whiteSpace=wrap;html=1;" vertex="1" parent="EwiAGtasDxcdIfSlzTFl-1">
          <mxGeometry x="630" y="452" width="120" height="30" as="geometry" />
        </mxCell>
        <mxCell id="EwiAGtasDxcdIfSlzTFl-19" value="08" style="text;html=1;align=center;verticalAlign=middle;resizable=0;points=[];autosize=1;strokeColor=none;fillColor=none;fontSize=11;fontFamily=Helvetica;fontColor=default;" vertex="1" parent="EwiAGtasDxcdIfSlzTFl-1">
          <mxGeometry x="780" y="452" width="40" height="30" as="geometry" />
        </mxCell>
        <mxCell id="EwiAGtasDxcdIfSlzTFl-20" value="09" style="text;html=1;align=center;verticalAlign=middle;resizable=0;points=[];autosize=1;strokeColor=none;fillColor=none;fontSize=11;fontFamily=Helvetica;fontColor=default;" vertex="1" parent="EwiAGtasDxcdIfSlzTFl-1">
          <mxGeometry x="780" y="514" width="40" height="30" as="geometry" />
        </mxCell>
        <mxCell id="EwiAGtasDxcdIfSlzTFl-21" value="CAN 1" style="rounded=0;whiteSpace=wrap;html=1;" vertex="1" parent="EwiAGtasDxcdIfSlzTFl-1">
          <mxGeometry x="470.5" y="200" width="120" height="30" as="geometry" />
        </mxCell>
        <mxCell id="EwiAGtasDxcdIfSlzTFl-22" value="ALM UNO" style="rounded=0;whiteSpace=wrap;html=1;" vertex="1" parent="EwiAGtasDxcdIfSlzTFl-1">
          <mxGeometry x="470" y="240" width="120" height="30" as="geometry" />
        </mxCell>
        <mxCell id="EwiAGtasDxcdIfSlzTFl-23" value="MUL UNO" style="rounded=0;whiteSpace=wrap;html=1;" vertex="1" parent="EwiAGtasDxcdIfSlzTFl-1">
          <mxGeometry x="470.5" y="394" width="120" height="30" as="geometry" />
        </mxCell>
        <mxCell id="EwiAGtasDxcdIfSlzTFl-24" style="edgeStyle=orthogonalEdgeStyle;rounded=0;orthogonalLoop=1;jettySize=auto;html=1;entryX=0;entryY=0.75;entryDx=0;entryDy=0;endArrow=none;endFill=0;" edge="1" parent="EwiAGtasDxcdIfSlzTFl-1" source="EwiAGtasDxcdIfSlzTFl-25" target="EwiAGtasDxcdIfSlzTFl-18">
          <mxGeometry relative="1" as="geometry" />
        </mxCell>
        <mxCell id="EwiAGtasDxcdIfSlzTFl-25" value="JN" style="rhombus;whiteSpace=wrap;html=1;fontFamily=Helvetica;fontSize=11;fontColor=default;" vertex="1" parent="EwiAGtasDxcdIfSlzTFl-1">
          <mxGeometry x="490" y="434" width="80" height="80" as="geometry" />
        </mxCell>
        <mxCell id="EwiAGtasDxcdIfSlzTFl-26" value="LEA 3000" style="shape=trapezoid;perimeter=trapezoidPerimeter;whiteSpace=wrap;html=1;fixedSize=1;fontFamily=Helvetica;fontSize=11;fontColor=default;direction=west;" vertex="1" parent="EwiAGtasDxcdIfSlzTFl-1">
          <mxGeometry x="470.0000000000002" y="354.0000000000001" width="120" height="30" as="geometry" />
        </mxCell>
        <mxCell id="EwiAGtasDxcdIfSlzTFl-28" value="JI 06" style="shape=offPageConnector;whiteSpace=wrap;html=1;fontFamily=Helvetica;fontSize=11;fontColor=default;direction=north;size=0.3058823529411765;" vertex="1" parent="EwiAGtasDxcdIfSlzTFl-1">
          <mxGeometry x="647.5" y="514" width="85" height="30" as="geometry" />
        </mxCell>
        <mxCell id="EwiAGtasDxcdIfSlzTFl-29" value="PAR" style="ellipse;whiteSpace=wrap;html=1;aspect=fixed;" vertex="1" parent="EwiAGtasDxcdIfSlzTFl-1">
          <mxGeometry x="504" y="868" width="50" height="50" as="geometry" />
        </mxCell>
        <mxCell id="EwiAGtasDxcdIfSlzTFl-30" value="ESA 6000" style="shape=trapezoid;perimeter=trapezoidPerimeter;whiteSpace=wrap;html=1;fixedSize=1;fontFamily=Helvetica;fontSize=11;fontColor=default;" vertex="1" parent="EwiAGtasDxcdIfSlzTFl-1">
          <mxGeometry x="470.5" y="820" width="120" height="30" as="geometry" />
        </mxCell>
        <mxCell id="nD-E9pVTsRB9OTWqqPe3-0" value="CAN 2" style="rounded=0;whiteSpace=wrap;html=1;" vertex="1" parent="EwiAGtasDxcdIfSlzTFl-1">
          <mxGeometry x="470" y="277" width="120" height="30" as="geometry" />
        </mxCell>
        <mxCell id="nD-E9pVTsRB9OTWqqPe3-1" value="ALM DOS" style="rounded=0;whiteSpace=wrap;html=1;" vertex="1" parent="EwiAGtasDxcdIfSlzTFl-1">
          <mxGeometry x="469.5" y="317" width="120" height="30" as="geometry" />
        </mxCell>
        <mxCell id="nD-E9pVTsRB9OTWqqPe3-2" value="MUL DOS" style="rounded=0;whiteSpace=wrap;html=1;" vertex="1" parent="EwiAGtasDxcdIfSlzTFl-1">
          <mxGeometry x="471.5" y="609" width="120" height="30" as="geometry" />
        </mxCell>
        <mxCell id="nD-E9pVTsRB9OTWqqPe3-3" value="RES NUM" style="rounded=0;whiteSpace=wrap;html=1;" vertex="1" parent="EwiAGtasDxcdIfSlzTFl-1">
          <mxGeometry x="471.5" y="650" width="120" height="29" as="geometry" />
        </mxCell>
        <mxCell id="nD-E9pVTsRB9OTWqqPe3-4" value="ALM NUM" style="rounded=0;whiteSpace=wrap;html=1;" vertex="1" parent="EwiAGtasDxcdIfSlzTFl-1">
          <mxGeometry x="471.5" y="526" width="120" height="30" as="geometry" />
        </mxCell>
        <mxCell id="nD-E9pVTsRB9OTWqqPe3-5" value="JZ" style="rhombus;whiteSpace=wrap;html=1;fontFamily=Helvetica;fontSize=11;fontColor=default;" vertex="1" parent="EwiAGtasDxcdIfSlzTFl-1">
          <mxGeometry x="489.5" y="690" width="80" height="80" as="geometry" />
        </mxCell>
      </root>
    </mxGraphModel>
  </diagram>
  <diagram name="E13" id="agoklTbCcpX5nusAiA3n">
    <mxGraphModel grid="1" page="1" gridSize="10" guides="1" tooltips="1" connect="1" arrows="1" fold="1" pageScale="1" pageWidth="1169" pageHeight="1654" math="0" shadow="0">
      <root>
        <mxCell id="5OlkEDOSfT3aim7fBZ6X-0" />
        <mxCell id="5OlkEDOSfT3aim7fBZ6X-1" parent="5OlkEDOSfT3aim7fBZ6X-0" />
        <mxCell id="5OlkEDOSfT3aim7fBZ6X-2" value="&lt;h1&gt;Ejercicio 13&lt;/h1&gt;Ingresar un lote de números enteros positivos o 0 (ceros), y mostrar el mayor de ellos. El fin de&lt;br&gt;ingreso de números se indica ingresando un número negativo." style="text;html=1;strokeColor=none;fillColor=none;spacing=5;spacingTop=-20;whiteSpace=wrap;overflow=hidden;rounded=0;" parent="5OlkEDOSfT3aim7fBZ6X-1" vertex="1">
          <mxGeometry x="10" y="10" width="1070" height="80" as="geometry" />
        </mxCell>
        <mxCell id="5OlkEDOSfT3aim7fBZ6X-3" value="Facundo Masino - SPD - Unidad 5" style="text;html=1;strokeColor=none;fillColor=none;align=center;verticalAlign=middle;whiteSpace=wrap;rounded=0;" parent="5OlkEDOSfT3aim7fBZ6X-1" vertex="1">
          <mxGeometry x="940" y="10" width="210" height="30" as="geometry" />
        </mxCell>
        <mxCell id="5OlkEDOSfT3aim7fBZ6X-4" style="edgeStyle=orthogonalEdgeStyle;rounded=0;orthogonalLoop=1;jettySize=auto;html=1;exitX=0.5;exitY=1;exitDx=0;exitDy=0;endArrow=none;endFill=0;" parent="5OlkEDOSfT3aim7fBZ6X-1" source="5OlkEDOSfT3aim7fBZ6X-25" edge="1">
          <mxGeometry relative="1" as="geometry">
            <mxPoint x="530" y="800" as="targetPoint" />
          </mxGeometry>
        </mxCell>
        <mxCell id="5OlkEDOSfT3aim7fBZ6X-5" value="" style="edgeStyle=orthogonalEdgeStyle;rounded=0;orthogonalLoop=1;jettySize=auto;html=1;endArrow=none;endFill=0;entryX=0.5;entryY=1;entryDx=0;entryDy=0;" parent="5OlkEDOSfT3aim7fBZ6X-1" source="5OlkEDOSfT3aim7fBZ6X-7" target="5OlkEDOSfT3aim7fBZ6X-26" edge="1">
          <mxGeometry relative="1" as="geometry">
            <mxPoint x="531" y="375" as="targetPoint" />
            <mxPoint x="530" y="180" as="sourcePoint" />
          </mxGeometry>
        </mxCell>
        <mxCell id="5OlkEDOSfT3aim7fBZ6X-6" style="edgeStyle=orthogonalEdgeStyle;rounded=0;orthogonalLoop=1;jettySize=auto;html=1;endArrow=none;endFill=0;entryX=0.5;entryY=1;entryDx=0;entryDy=0;" parent="5OlkEDOSfT3aim7fBZ6X-1" source="5OlkEDOSfT3aim7fBZ6X-26" edge="1">
          <mxGeometry relative="1" as="geometry">
            <mxPoint x="530.5" y="439" as="targetPoint" />
          </mxGeometry>
        </mxCell>
        <mxCell id="5OlkEDOSfT3aim7fBZ6X-7" value="I" style="ellipse;whiteSpace=wrap;html=1;aspect=fixed;" parent="5OlkEDOSfT3aim7fBZ6X-1" vertex="1">
          <mxGeometry x="500" y="120" width="60" height="60" as="geometry" />
        </mxCell>
        <mxCell id="5OlkEDOSfT3aim7fBZ6X-8" value="00" style="text;html=1;align=center;verticalAlign=middle;resizable=0;points=[];autosize=1;strokeColor=none;fillColor=none;fontSize=11;fontFamily=Helvetica;fontColor=default;" parent="5OlkEDOSfT3aim7fBZ6X-1" vertex="1">
          <mxGeometry x="330" y="135" width="40" height="30" as="geometry" />
        </mxCell>
        <mxCell id="5OlkEDOSfT3aim7fBZ6X-9" value="01" style="text;html=1;align=center;verticalAlign=middle;resizable=0;points=[];autosize=1;strokeColor=none;fillColor=none;fontSize=11;fontFamily=Helvetica;fontColor=default;" parent="5OlkEDOSfT3aim7fBZ6X-1" vertex="1">
          <mxGeometry x="330" y="200" width="40" height="30" as="geometry" />
        </mxCell>
        <mxCell id="5OlkEDOSfT3aim7fBZ6X-10" value="02" style="text;html=1;align=center;verticalAlign=middle;resizable=0;points=[];autosize=1;strokeColor=none;fillColor=none;fontSize=11;fontFamily=Helvetica;fontColor=default;" parent="5OlkEDOSfT3aim7fBZ6X-1" vertex="1">
          <mxGeometry x="330" y="240" width="40" height="30" as="geometry" />
        </mxCell>
        <mxCell id="5OlkEDOSfT3aim7fBZ6X-11" value="03" style="text;html=1;align=center;verticalAlign=middle;resizable=0;points=[];autosize=1;strokeColor=none;fillColor=none;fontSize=11;fontFamily=Helvetica;fontColor=default;" parent="5OlkEDOSfT3aim7fBZ6X-1" vertex="1">
          <mxGeometry x="330" y="280" width="40" height="30" as="geometry" />
        </mxCell>
        <mxCell id="5OlkEDOSfT3aim7fBZ6X-12" value="04" style="text;html=1;align=center;verticalAlign=middle;resizable=0;points=[];autosize=1;strokeColor=none;fillColor=none;fontSize=11;fontFamily=Helvetica;fontColor=default;" parent="5OlkEDOSfT3aim7fBZ6X-1" vertex="1">
          <mxGeometry x="330" y="324" width="40" height="30" as="geometry" />
        </mxCell>
        <mxCell id="5OlkEDOSfT3aim7fBZ6X-13" value="05" style="text;html=1;align=center;verticalAlign=middle;resizable=0;points=[];autosize=1;strokeColor=none;fillColor=none;fontSize=11;fontFamily=Helvetica;fontColor=default;" parent="5OlkEDOSfT3aim7fBZ6X-1" vertex="1">
          <mxGeometry x="330" y="370" width="40" height="30" as="geometry" />
        </mxCell>
        <mxCell id="5OlkEDOSfT3aim7fBZ6X-14" value="06" style="text;html=1;align=center;verticalAlign=middle;resizable=0;points=[];autosize=1;strokeColor=none;fillColor=none;fontSize=11;fontFamily=Helvetica;fontColor=default;" parent="5OlkEDOSfT3aim7fBZ6X-1" vertex="1">
          <mxGeometry x="330" y="459" width="40" height="30" as="geometry" />
        </mxCell>
        <mxCell id="5OlkEDOSfT3aim7fBZ6X-15" value="07" style="text;html=1;align=center;verticalAlign=middle;resizable=0;points=[];autosize=1;strokeColor=none;fillColor=none;fontSize=11;fontFamily=Helvetica;fontColor=default;" parent="5OlkEDOSfT3aim7fBZ6X-1" vertex="1">
          <mxGeometry x="330" y="514" width="40" height="30" as="geometry" />
        </mxCell>
        <mxCell id="5OlkEDOSfT3aim7fBZ6X-16" value="RES MAYOR" style="rounded=0;whiteSpace=wrap;html=1;" parent="5OlkEDOSfT3aim7fBZ6X-1" vertex="1">
          <mxGeometry x="471.5" y="565" width="120" height="30" as="geometry" />
        </mxCell>
        <mxCell id="5OlkEDOSfT3aim7fBZ6X-17" style="edgeStyle=orthogonalEdgeStyle;rounded=0;orthogonalLoop=1;jettySize=auto;html=1;entryX=1;entryY=0.5;entryDx=0;entryDy=0;endArrow=none;endFill=0;" parent="5OlkEDOSfT3aim7fBZ6X-1" source="5OlkEDOSfT3aim7fBZ6X-18" edge="1">
          <mxGeometry relative="1" as="geometry">
            <mxPoint x="690" y="514" as="targetPoint" />
          </mxGeometry>
        </mxCell>
        <mxCell id="5OlkEDOSfT3aim7fBZ6X-18" value="CAR MAYOR" style="rounded=0;whiteSpace=wrap;html=1;" parent="5OlkEDOSfT3aim7fBZ6X-1" vertex="1">
          <mxGeometry x="630" y="452" width="120" height="30" as="geometry" />
        </mxCell>
        <mxCell id="5OlkEDOSfT3aim7fBZ6X-19" value="08" style="text;html=1;align=center;verticalAlign=middle;resizable=0;points=[];autosize=1;strokeColor=none;fillColor=none;fontSize=11;fontFamily=Helvetica;fontColor=default;" parent="5OlkEDOSfT3aim7fBZ6X-1" vertex="1">
          <mxGeometry x="330" y="566" width="40" height="30" as="geometry" />
        </mxCell>
        <mxCell id="5OlkEDOSfT3aim7fBZ6X-20" value="10" style="text;html=1;align=center;verticalAlign=middle;resizable=0;points=[];autosize=1;strokeColor=none;fillColor=none;fontSize=11;fontFamily=Helvetica;fontColor=default;" parent="5OlkEDOSfT3aim7fBZ6X-1" vertex="1">
          <mxGeometry x="330" y="710" width="40" height="30" as="geometry" />
        </mxCell>
        <mxCell id="5OlkEDOSfT3aim7fBZ6X-21" value="CAN 1" style="rounded=0;whiteSpace=wrap;html=1;" parent="5OlkEDOSfT3aim7fBZ6X-1" vertex="1">
          <mxGeometry x="470.5" y="200" width="120" height="30" as="geometry" />
        </mxCell>
        <mxCell id="5OlkEDOSfT3aim7fBZ6X-22" value="ALM MAYOR" style="rounded=0;whiteSpace=wrap;html=1;" parent="5OlkEDOSfT3aim7fBZ6X-1" vertex="1">
          <mxGeometry x="470" y="240" width="120" height="30" as="geometry" />
        </mxCell>
        <mxCell id="5OlkEDOSfT3aim7fBZ6X-23" value="MUL MAYOR" style="rounded=0;whiteSpace=wrap;html=1;" parent="5OlkEDOSfT3aim7fBZ6X-1" vertex="1">
          <mxGeometry x="469.5" y="370" width="120" height="30" as="geometry" />
        </mxCell>
        <mxCell id="5OlkEDOSfT3aim7fBZ6X-24" style="edgeStyle=orthogonalEdgeStyle;rounded=0;orthogonalLoop=1;jettySize=auto;html=1;entryX=0;entryY=0.75;entryDx=0;entryDy=0;endArrow=none;endFill=0;" parent="5OlkEDOSfT3aim7fBZ6X-1" source="5OlkEDOSfT3aim7fBZ6X-25" target="5OlkEDOSfT3aim7fBZ6X-18" edge="1">
          <mxGeometry relative="1" as="geometry" />
        </mxCell>
        <mxCell id="5OlkEDOSfT3aim7fBZ6X-25" value="JN" style="rhombus;whiteSpace=wrap;html=1;fontFamily=Helvetica;fontSize=11;fontColor=default;" parent="5OlkEDOSfT3aim7fBZ6X-1" vertex="1">
          <mxGeometry x="490" y="434" width="80" height="80" as="geometry" />
        </mxCell>
        <mxCell id="23asH4mN38IftJCMhhuT-11" style="edgeStyle=orthogonalEdgeStyle;shape=connector;rounded=0;orthogonalLoop=1;jettySize=auto;html=1;labelBackgroundColor=default;strokeColor=default;fontFamily=Helvetica;fontSize=11;fontColor=default;endArrow=none;endFill=0;" edge="1" parent="5OlkEDOSfT3aim7fBZ6X-1" source="5OlkEDOSfT3aim7fBZ6X-26">
          <mxGeometry relative="1" as="geometry">
            <mxPoint x="840" y="660" as="targetPoint" />
          </mxGeometry>
        </mxCell>
        <mxCell id="5OlkEDOSfT3aim7fBZ6X-26" value="LEA 3000" style="shape=trapezoid;perimeter=trapezoidPerimeter;whiteSpace=wrap;html=1;fixedSize=1;fontFamily=Helvetica;fontSize=11;fontColor=default;direction=west;" parent="5OlkEDOSfT3aim7fBZ6X-1" vertex="1">
          <mxGeometry x="470.0000000000002" y="280.0000000000001" width="120" height="30" as="geometry" />
        </mxCell>
        <mxCell id="5OlkEDOSfT3aim7fBZ6X-31" value="ALM USER" style="rounded=0;whiteSpace=wrap;html=1;" parent="5OlkEDOSfT3aim7fBZ6X-1" vertex="1">
          <mxGeometry x="471.5" y="324" width="120" height="30" as="geometry" />
        </mxCell>
        <mxCell id="5OlkEDOSfT3aim7fBZ6X-34" value="CAR USER" style="rounded=0;whiteSpace=wrap;html=1;" parent="5OlkEDOSfT3aim7fBZ6X-1" vertex="1">
          <mxGeometry x="471.5" y="526" width="120" height="30" as="geometry" />
        </mxCell>
        <mxCell id="23asH4mN38IftJCMhhuT-7" style="edgeStyle=orthogonalEdgeStyle;shape=connector;rounded=0;orthogonalLoop=1;jettySize=auto;html=1;labelBackgroundColor=default;strokeColor=default;fontFamily=Helvetica;fontSize=11;fontColor=default;endArrow=none;endFill=0;" edge="1" parent="5OlkEDOSfT3aim7fBZ6X-1" source="5OlkEDOSfT3aim7fBZ6X-35" target="23asH4mN38IftJCMhhuT-1">
          <mxGeometry relative="1" as="geometry" />
        </mxCell>
        <mxCell id="5OlkEDOSfT3aim7fBZ6X-35" value="JN" style="rhombus;whiteSpace=wrap;html=1;fontFamily=Helvetica;fontSize=11;fontColor=default;" parent="5OlkEDOSfT3aim7fBZ6X-1" vertex="1">
          <mxGeometry x="490" y="620" width="80" height="80" as="geometry" />
        </mxCell>
        <mxCell id="23asH4mN38IftJCMhhuT-10" style="edgeStyle=orthogonalEdgeStyle;shape=connector;rounded=0;orthogonalLoop=1;jettySize=auto;html=1;labelBackgroundColor=default;strokeColor=default;fontFamily=Helvetica;fontSize=11;fontColor=default;endArrow=none;endFill=0;" edge="1" parent="5OlkEDOSfT3aim7fBZ6X-1" source="23asH4mN38IftJCMhhuT-1">
          <mxGeometry relative="1" as="geometry">
            <mxPoint x="840" y="660" as="targetPoint" />
          </mxGeometry>
        </mxCell>
        <mxCell id="23asH4mN38IftJCMhhuT-1" value="JI 03" style="shape=offPageConnector;whiteSpace=wrap;html=1;fontFamily=Helvetica;fontSize=11;fontColor=default;direction=north;size=0.3058823529411765;" vertex="1" parent="5OlkEDOSfT3aim7fBZ6X-1">
          <mxGeometry x="647.5" y="645" width="85" height="30" as="geometry" />
        </mxCell>
        <mxCell id="23asH4mN38IftJCMhhuT-4" style="edgeStyle=orthogonalEdgeStyle;rounded=0;orthogonalLoop=1;jettySize=auto;html=1;entryX=0.5;entryY=0;entryDx=0;entryDy=0;endArrow=none;endFill=0;" edge="1" parent="5OlkEDOSfT3aim7fBZ6X-1" source="23asH4mN38IftJCMhhuT-2" target="23asH4mN38IftJCMhhuT-3">
          <mxGeometry relative="1" as="geometry" />
        </mxCell>
        <mxCell id="23asH4mN38IftJCMhhuT-2" value="ESA 6000" style="shape=trapezoid;perimeter=trapezoidPerimeter;whiteSpace=wrap;html=1;fixedSize=1;" vertex="1" parent="5OlkEDOSfT3aim7fBZ6X-1">
          <mxGeometry x="630" y="510" width="120" height="29" as="geometry" />
        </mxCell>
        <mxCell id="23asH4mN38IftJCMhhuT-3" value="PAR" style="ellipse;whiteSpace=wrap;html=1;aspect=fixed;" vertex="1" parent="5OlkEDOSfT3aim7fBZ6X-1">
          <mxGeometry x="665" y="556" width="50" height="50" as="geometry" />
        </mxCell>
        <mxCell id="23asH4mN38IftJCMhhuT-5" value="CAR USER" style="rounded=0;whiteSpace=wrap;html=1;" vertex="1" parent="5OlkEDOSfT3aim7fBZ6X-1">
          <mxGeometry x="469.5" y="710" width="120" height="30" as="geometry" />
        </mxCell>
        <mxCell id="23asH4mN38IftJCMhhuT-6" value="ALM MAYOR" style="rounded=0;whiteSpace=wrap;html=1;" vertex="1" parent="5OlkEDOSfT3aim7fBZ6X-1">
          <mxGeometry x="469.5" y="750" width="120" height="30" as="geometry" />
        </mxCell>
        <mxCell id="23asH4mN38IftJCMhhuT-14" style="edgeStyle=orthogonalEdgeStyle;shape=connector;rounded=0;orthogonalLoop=1;jettySize=auto;html=1;labelBackgroundColor=default;strokeColor=default;fontFamily=Helvetica;fontSize=11;fontColor=default;endArrow=none;endFill=0;" edge="1" parent="5OlkEDOSfT3aim7fBZ6X-1" source="23asH4mN38IftJCMhhuT-8">
          <mxGeometry relative="1" as="geometry">
            <mxPoint x="840" y="660" as="targetPoint" />
          </mxGeometry>
        </mxCell>
        <mxCell id="23asH4mN38IftJCMhhuT-8" value="JI 03" style="shape=offPageConnector;whiteSpace=wrap;html=1;fontFamily=Helvetica;fontSize=11;fontColor=default;direction=north;size=0.3058823529411765;" vertex="1" parent="5OlkEDOSfT3aim7fBZ6X-1">
          <mxGeometry x="490" y="800" width="85" height="30" as="geometry" />
        </mxCell>
        <mxCell id="23asH4mN38IftJCMhhuT-12" value="09" style="text;html=1;align=center;verticalAlign=middle;resizable=0;points=[];autosize=1;strokeColor=none;fillColor=none;fontSize=11;fontFamily=Helvetica;fontColor=default;" vertex="1" parent="5OlkEDOSfT3aim7fBZ6X-1">
          <mxGeometry x="330" y="640" width="40" height="30" as="geometry" />
        </mxCell>
        <mxCell id="23asH4mN38IftJCMhhuT-13" value="11" style="text;html=1;align=center;verticalAlign=middle;resizable=0;points=[];autosize=1;strokeColor=none;fillColor=none;fontSize=11;fontFamily=Helvetica;fontColor=default;" vertex="1" parent="5OlkEDOSfT3aim7fBZ6X-1">
          <mxGeometry x="335" y="750" width="30" height="30" as="geometry" />
        </mxCell>
        <mxCell id="23asH4mN38IftJCMhhuT-15" value="12" style="text;html=1;align=center;verticalAlign=middle;resizable=0;points=[];autosize=1;strokeColor=none;fillColor=none;fontSize=11;fontFamily=Helvetica;fontColor=default;" vertex="1" parent="5OlkEDOSfT3aim7fBZ6X-1">
          <mxGeometry x="330" y="800" width="40" height="30" as="geometry" />
        </mxCell>
        <mxCell id="23asH4mN38IftJCMhhuT-16" value="13" style="text;html=1;align=center;verticalAlign=middle;resizable=0;points=[];autosize=1;strokeColor=none;fillColor=none;fontSize=11;fontFamily=Helvetica;fontColor=default;" vertex="1" parent="5OlkEDOSfT3aim7fBZ6X-1">
          <mxGeometry x="770" y="452" width="40" height="30" as="geometry" />
        </mxCell>
        <mxCell id="23asH4mN38IftJCMhhuT-17" value="14" style="text;html=1;align=center;verticalAlign=middle;resizable=0;points=[];autosize=1;strokeColor=none;fillColor=none;fontSize=11;fontFamily=Helvetica;fontColor=default;" vertex="1" parent="5OlkEDOSfT3aim7fBZ6X-1">
          <mxGeometry x="770" y="509" width="40" height="30" as="geometry" />
        </mxCell>
        <mxCell id="23asH4mN38IftJCMhhuT-18" value="15" style="text;html=1;align=center;verticalAlign=middle;resizable=0;points=[];autosize=1;strokeColor=none;fillColor=none;fontSize=11;fontFamily=Helvetica;fontColor=default;" vertex="1" parent="5OlkEDOSfT3aim7fBZ6X-1">
          <mxGeometry x="770" y="566" width="40" height="30" as="geometry" />
        </mxCell>
        <mxCell id="23asH4mN38IftJCMhhuT-19" value="16" style="text;html=1;align=center;verticalAlign=middle;resizable=0;points=[];autosize=1;strokeColor=none;fillColor=none;fontSize=11;fontFamily=Helvetica;fontColor=default;" vertex="1" parent="5OlkEDOSfT3aim7fBZ6X-1">
          <mxGeometry x="860" y="645" width="40" height="30" as="geometry" />
        </mxCell>
      </root>
    </mxGraphModel>
  </diagram>
</mxfile>
